<?xml version="1.0" standalone="no"?>
<!DOCTYPE svg PUBLIC "-//W3C//DTD SVG 1.1//EN" "http://www.w3.org/Graphics/SVG/1.1/DTD/svg11.dtd" >
<svg xmlns="http://www.w3.org/2000/svg">
<metadata></metadata>
<defs>
<font id="exo_softbold" horiz-adv-x="1206" >
<font-face units-per-em="2048" ascent="1638" descent="-410" />
<missing-glyph horiz-adv-x="444" />
<glyph horiz-adv-x="0" />
<glyph horiz-adv-x="682" />
<glyph unicode=" "  horiz-adv-x="444" />
<glyph unicode="&#x09;" horiz-adv-x="444" />
<glyph unicode="&#xa0;" horiz-adv-x="444" />
<glyph unicode="!" horiz-adv-x="614" d="M131 154q0 71 51 122t122 51t122.5 -51t51.5 -122t-51.5 -122.5t-122.5 -51.5t-122 51.5t-51 122.5zM157 870v458q0 95 95 95h109q96 0 96 -95v-458l-25 -329q-6 -92 -99 -92h-53q-93 0 -99 92z" />
<glyph unicode="&#x22;" horiz-adv-x="768" d="M112 1331q-2 40 18 61t60 21h56q41 0 62 -21t19 -61l-11 -290q-4 -81 -85 -81h-25q-80 0 -85 80zM442 1331q-2 40 18 61t60 21h57q41 0 61.5 -21t18.5 -61l-11 -290q-4 -81 -84 -81h-25q-79 0 -84 80z" />
<glyph unicode="#" horiz-adv-x="1454" d="M82 491l4 24q13 70 87 70h135q27 0 32 26l41 230q5 31 -27 31h-115q-41 0 -60 23t-11 64l4 24q13 71 87 71h132q27 0 31 25l45 263q13 71 86 71h69q41 0 60 -22.5t12 -62.5l-43 -243q-5 -31 25 -31h229q27 0 31 25l45 263q13 71 86 71h69q41 0 60 -22.5t12 -62.5 l-43 -243q-5 -31 25 -31h111q41 0 60 -23t11 -64l-4 -24q-13 -71 -87 -71h-126q-27 0 -31 -25l-39 -231q-8 -31 25 -31h105q41 0 60 -23t11 -64l-4 -24q-13 -70 -87 -70h-122q-26 0 -31 -26l-53 -307q-13 -71 -86 -71h-69q-41 0 -60 22.5t-12 62.5l51 288q5 31 -26 31h-228 q-26 0 -31 -26l-53 -307q-13 -71 -86 -71h-69q-41 0 -60 22.5t-12 62.5l50 288q5 31 -25 31h-120q-41 0 -60 23t-11 64zM570 616q-4 -15 3.5 -23t22.5 -8h227q26 0 31 26l41 230q5 31 -27 31h-227q-27 0 -31 -25z" />
<glyph unicode="$" horiz-adv-x="1181" d="M88 1049q0 220 117 305t397 85h6q18 0 21 19l12 121q2 22 16 34.5t36 12.5h7q26 0 40 -16t12 -41l-12 -112q-2 -21 20 -23q118 -6 224 -29q49 -10 65 -41t10 -86q-5 -56 -27.5 -80.5t-72.5 -23.5q-69 2 -229 4q-20 0 -23 -20l-26 -296q-1 -16 15 -22l118 -43 q162 -57 230.5 -160.5t68.5 -255.5q0 -219 -113 -311.5t-388 -95.5h-20q-20 0 -22 -19l-15 -151q-2 -22 -16 -34.5t-36 -12.5h-6q-26 0 -40.5 15.5t-12.5 41.5l15 143q2 20 -19 23q-134 9 -249 29q-53 9 -69.5 39.5t-10.5 89.5q5 60 27.5 85.5t77.5 24.5q42 -1 127 -2 t128 -2q18 -1 21 19l30 305q0 15 -15 22l-125 45q-156 56 -225 159.5t-69 254.5zM399 1049q0 -59 29 -93.5t95 -56.5l24 -8q11 -5 19 0t9 17l22 248q1 10 -8.5 16t-26.5 5q-92 -3 -127.5 -29.5t-35.5 -98.5zM604 266q-3 -24 21 -24q98 6 136 36t38 101q0 62 -29 96t-100 58 l-16 6q-10 3 -18 -2t-10 -16z" />
<glyph unicode="%" horiz-adv-x="1857" d="M70 1020q0 235 77.5 328t271.5 93q197 0 275 -93t78 -328q0 -234 -78.5 -327.5t-274.5 -93.5q-194 0 -271.5 93.5t-77.5 327.5zM294 1020q0 -106 11 -158.5t36.5 -72.5t76.5 -20q53 0 79.5 20t38 73t11.5 158q0 152 -26 201.5t-103 49.5q-51 0 -76.5 -20.5t-36.5 -73 t-11 -157.5zM444 23q-12 23 10 58l773 1285q26 47 80 47h46q44 0 56 -23.5t-10 -57.5l-773 -1285q-26 -47 -80 -47h-46q-44 0 -56 23zM1087 397q0 234 77.5 327.5t271.5 93.5q196 0 273.5 -93.5t77.5 -327.5q0 -235 -77.5 -328t-273.5 -93q-194 0 -271.5 93t-77.5 328z M1310 397q-1 -105 10.5 -158t37 -73t77.5 -20t78.5 20t38.5 73t12 158t-12 158t-38.5 72.5t-78.5 19.5q-76 0 -101 -48t-24 -202z" />
<glyph unicode="&#x26;" horiz-adv-x="1566" d="M105 359q0 160 57 251.5t188 112.5q11 2 15 5.5t0 7.5t-15 6q-112 24 -157 98.5t-45 225.5q0 71 10.5 124.5t29 93t53 67t74.5 45t101.5 26.5t125.5 12.5t155 3.5q128 0 237 -11q50 -6 66 -36.5t10 -84.5q-6 -53 -32.5 -80t-73.5 -26q-10 0 -90.5 2t-124.5 2 q-135 0 -180.5 -35t-45.5 -150q0 -109 40 -147.5t151 -38.5h279q31 0 35 33l7 94q8 92 100 92h68q47 0 71.5 -25t24.5 -71v-92q0 -31 31 -31h101q87 0 87 -88v-34q0 -87 -87 -87h-101q-31 0 -31 -31v-268q0 -57 20.5 -79.5t75.5 -23.5h48q89 -1 100 -99q7 -61 -9 -91.5 t-64 -39.5q-89 -16 -174 -16q-175 0 -241 117q-20 30 -47 9q-78 -68 -174 -97.5t-242 -29.5q-230 0 -328.5 86.5t-98.5 297.5zM435 420q0 -115 37.5 -155t148.5 -39q201 3 310 83q24 15 24 60v220q0 35 -34 35h-284q-118 0 -160 -42t-42 -162z" />
<glyph unicode="'" horiz-adv-x="436" d="M112 1331q-2 40 18 61t60 21h56q41 0 62 -21t19 -61l-11 -290q-4 -81 -85 -81h-25q-80 0 -85 80z" />
<glyph unicode="(" horiz-adv-x="747" d="M80 639q0 381 125 612.5t389 338.5q78 30 99 -37q15 -60 -45 -101q-143 -97 -209 -299.5t-66 -511.5q0 -618 276 -811q58 -44 44 -103q-8 -31 -34 -41t-64 5q-265 107 -390 338.5t-125 609.5z" />
<glyph unicode=")" horiz-adv-x="747" d="M57 -273q-17 58 42 103q276 193 276 811q0 310 -65.5 512t-208.5 298q-61 43 -44 102q8 31 33.5 41t64.5 -4q264 -107 388.5 -338.5t124.5 -612.5q0 -378 -124.5 -608.5t-388.5 -339.5q-38 -15 -64 -5t-34 41z" />
<glyph unicode="*" horiz-adv-x="925" d="M96 1155l13 38q10 28 30.5 37.5t48.5 -2.5l132 -55q47 -21 47 -55q-1 -36 -18 -60q-20 -24 -68 -12l-142 34q-60 14 -43 75zM225 857l151 181q28 34 24 77l-17 237q-5 64 59 64h41q62 0 59 -64l-17 -236q-4 -42 24 -77l150 -183q41 -48 -10 -85l-31 -23q-52 -39 -83 18 l-85 144q-11 21 -27.5 21t-28.5 -21l-84 -143q-31 -57 -83 -18l-33 23q-52 38 -9 85zM559 1118q-1 34 46 55l132 55q28 13 49 3.5t29 -38.5l13 -39q20 -61 -42 -75l-141 -33q-46 -11 -66 12q-19 23 -20 60z" />
<glyph unicode="+" horiz-adv-x="1103" d="M86 601v31q0 96 95 96h223q35 0 35 35v211q0 96 95 96h34q46 0 71 -25t25 -71v-211q0 -35 34 -35h224q46 0 71 -25t25 -71v-31q0 -47 -25 -71.5t-71 -24.5h-224q-34 0 -34 -34v-212q0 -47 -25 -71.5t-71 -24.5h-32q-46 0 -71 24.5t-25 71.5v212q0 34 -35 34h-224 q-95 0 -95 96z" />
<glyph unicode="," horiz-adv-x="497" d="M78 157q0 71 46.5 120t123.5 49q76 0 122.5 -46t46.5 -146q0 -375 -248 -379q-55 0 -55 61v7q0 24 11 36t39 24q46 25 53 70q9 34 -22 42q-54 15 -85.5 60t-31.5 102z" />
<glyph unicode="-" horiz-adv-x="847" d="M119 510v24q0 87 87 87h435q88 0 88 -87v-24q0 -87 -88 -87h-435q-87 0 -87 87z" />
<glyph unicode="." horiz-adv-x="503" d="M76 155q0 71 51 122.5t122 51.5t122.5 -51.5t51.5 -122.5t-51.5 -122t-122.5 -51t-122 51t-51 122z" />
<glyph unicode="/" horiz-adv-x="1126" d="M95 -44l718 1394q31 63 103 63h58q110 0 58 -104l-719 -1394q-31 -63 -103 -63h-52q-115 0 -63 104z" />
<glyph unicode="0" horiz-adv-x="1288" d="M101 707q0 206 27.5 343t92.5 225.5t167 127t256 38.5t256 -38.5t167 -127t93 -225.5t28 -343t-28 -343t-93 -225.5t-167 -127t-256 -38.5t-256 38.5t-167 127t-92.5 225.5t-27.5 343zM408 707q0 -196 21.5 -299t70.5 -145t142 -42q95 0 145 42t72 145t22 299t-22 299 t-72 144.5t-145 41.5q-93 0 -142 -41.5t-70.5 -144.5t-21.5 -299z" />
<glyph unicode="1" horiz-adv-x="878" d="M38 1186q-14 86 66 118l216 87q56 22 117 22h156q95 0 95 -96v-1221q0 -96 -95 -96h-120q-47 0 -71.5 25t-24.5 71v900q0 66 6 109q2 19 -7.5 28t-28.5 4l-191 -51q-96 -23 -113 74z" />
<glyph unicode="2" horiz-adv-x="1183" d="M93 96v78q0 79 44 128l346 371q133 139 193.5 232t59.5 172q-1 31 -12.5 50.5t-38 29t-58 12.5t-84.5 3q-188 0 -329 -12q-97 -6 -102 89l-2 50q-6 93 110 111q172 28 360 28q92 0 160.5 -8.5t129.5 -30t100 -58t61 -95t22 -137.5q0 -125 -47 -222.5t-183 -243.5 l-307 -330q-19 -20 -14 -29.5t34 -7.5q92 4 143 4h320q96 0 96 -95v-89q0 -46 -24.5 -71t-71.5 -25h-811q-95 0 -95 96z" />
<glyph unicode="3" horiz-adv-x="1159" d="M88 102l2 46q6 96 102 90q220 -4 293 -4q149 0 204.5 40.5t55.5 158.5q0 106 -44 152t-172 45l-178 -1q-43 -1 -65 21t-22 66v39q0 87 87 87h178q54 0 92 9.5t59.5 24t33 41t14 51t2.5 62.5q0 52 -10 82t-39 47t-68 22t-110 5q-69 0 -284 -5q-95 -3 -101 91l-2 39 q-5 93 89 107q171 23 350 23q256 0 363 -72t107 -257q0 -148 -40.5 -233t-147.5 -115q-11 -3 -15 -8.5t0 -11t15 -7.5q117 -29 165.5 -111t50.5 -233q3 -221 -107 -318t-376 -97q-170 0 -396 21q-89 9 -86 103z" />
<glyph unicode="4" horiz-adv-x="1302" d="M66 540l335 799q29 74 111 74h96q54 0 74.5 -30.5t0.5 -80.5l-292 -701q-13 -35 -1 -51.5t43 -16.5h307q35 0 35 35v287q0 62 15 116l16 85q19 82 105 82h56q96 0 96 -95v-475q0 -35 35 -35h75q67 0 67 -80v-40q0 -73 -72 -86l-74 -11q-31 -6 -31 -37v-183 q0 -46 -24.5 -71t-71.5 -25h-97q-95 0 -95 96v180q0 34 -35 34h-524q-93 0 -139 72t-11 158z" />
<glyph unicode="5" horiz-adv-x="1128" d="M88 114l7 55q12 92 106 84q158 -16 269 -16q105 0 162.5 22.5t78 63.5t23.5 115q1 34 -1.5 60t-12.5 47t-21.5 35.5t-34.5 26t-44 19t-59 14t-71 10t-87 8.5l-172 19q-45 4 -72.5 37t-25.5 78l29 528q3 45 28.5 69t70.5 24h641q47 0 71 -25.5t22 -72.5l-2 -52 q-5 -92 -97 -92h-449q-37 0 -40 -38l-10 -185q-3 -32 32 -37l168 -20q245 -27 345.5 -141.5t99.5 -317.5q0 -77 -13 -141t-47 -124t-88 -101t-141.5 -66t-202.5 -25q-171 0 -378 32q-93 11 -84 107z" />
<glyph unicode="6" horiz-adv-x="1204" d="M104 692q0 138 12.5 245t35 185.5t61 134.5t83.5 91t109.5 55t131.5 27.5t157 7.5q139 0 247 -19q81 -14 81 -107v-22q0 -44 -28 -68.5t-74 -23.5q-138 2 -226 2q-51 0 -86 -4t-68 -16.5t-53.5 -34t-37 -56.5t-25.5 -84t-13 -118q-1 -28 9.5 -35.5t27.5 6.5q99 73 270 73 q117 0 194.5 -24t124 -79.5t66 -138t19.5 -206.5q0 -104 -12 -179t-44 -140t-87.5 -104.5t-143 -62t-209.5 -22.5q-107 0 -183 13.5t-136.5 47t-97.5 85t-61.5 134t-34 187t-9.5 250.5zM406 577q1 -68 4 -113.5t9 -87t17 -66.5t26.5 -45t39.5 -30t54.5 -15t72.5 -5 q54 0 90.5 11t58 29t32.5 53t14.5 71.5t3.5 97.5q0 133 -40.5 181t-158.5 48q-56 0 -101.5 -14.5t-98.5 -50.5q-23 -14 -23 -64z" />
<glyph unicode="7" horiz-adv-x="1077" d="M61 1315q-3 47 21 72.5t71 25.5h750q76 0 112.5 -48t13.5 -118l-402 -1170q-27 -77 -109 -77h-110q-53 0 -73.5 30t-2.5 80l319 914q18 54 37 92q10 19 3.5 30t-27.5 11h-503q-93 0 -98 93z" />
<glyph unicode="8" horiz-adv-x="1267" d="M108 352q0 157 46.5 250.5t164.5 118.5q10 3 14 8t0.5 9.5t-13.5 7.5q-91 25 -134 108.5t-43 206.5q0 103 20.5 170t75 116t150.5 70t245 21q150 0 246 -21.5t150.5 -70t75 -115.5t20.5 -170q0 -262 -176 -314q-11 -3 -15 -8t0.5 -10t15.5 -7q115 -24 162 -119.5 t47 -250.5q0 -104 -22.5 -171t-81.5 -115t-161 -69t-261 -23q-156 -1 -258.5 20t-161.5 69.5t-82.5 116.5t-23.5 172zM402 415q0 -119 46.5 -160t187.5 -41q139 0 184 41t45 160q0 127 -44.5 168.5t-182.5 41.5q-98 -1 -148 -20t-69 -62t-19 -128zM424 1024 q0 -110 43 -146.5t172 -36.5q88 0 131 16.5t58.5 53.5t15.5 113q0 115 -40.5 153t-167.5 38q-128 0 -170 -38.5t-42 -152.5z" />
<glyph unicode="9" horiz-adv-x="1204" d="M85 931q0 135 24.5 227.5t82.5 157t154 93.5t238 29q111 0 188.5 -13.5t136.5 -48.5t94 -85.5t57 -135.5t29.5 -186t7.5 -248q0 -137 -11 -241t-31 -183.5t-56 -135t-80 -92t-108.5 -57.5t-135 -29t-167.5 -8q-152 0 -272 20q-91 15 -83 108l3 23q8 93 100 90 q68 -1 250 -1q149 0 211 66.5t75 248.5q2 24 -11.5 31.5t-31.5 -5.5q-98 -74 -268 -74q-111 0 -190 33.5t-123 96t-63.5 140.5t-19.5 179zM379 936q-1 -125 40.5 -177.5t153.5 -52.5q56 0 101 15.5t100 53.5q23 15 23 43q-1 85 -3.5 136.5t-11 99.5t-22 72t-38.5 43t-58 25 t-83 6q-66 0 -106.5 -15t-61.5 -50.5t-27.5 -80t-6.5 -118.5z" />
<glyph unicode=":" horiz-adv-x="530" d="M78 156q0 71 51 122t122 51t122.5 -51t51.5 -122t-51.5 -122.5t-122.5 -51.5t-122 51.5t-51 122.5zM78 769q0 71 51 122t122 51t122.5 -51t51.5 -122t-51.5 -122.5t-122.5 -51.5t-122 51.5t-51 122.5z" />
<glyph unicode=";" horiz-adv-x="530" d="M92 769q0 71 51.5 122t122.5 51t122 -51t51 -122t-51 -122.5t-122 -51.5t-122.5 51.5t-51.5 122.5zM95 157q0 72 46 120.5t123 48.5q76 0 123 -46t47 -146q0 -375 -248 -379q-56 0 -56 61v7q0 24 11.5 36t39.5 24q46 25 53 70q9 34 -22 42q-54 15 -85.5 60t-31.5 102z " />
<glyph unicode="&#x3c;" horiz-adv-x="1060" d="M82 579v74q0 81 75 109l675 267q51 19 81 -1t30 -72v-39q0 -79 -78 -108l-461 -171q-15 -5 -20.5 -13.5t0 -17.5t20.5 -14l461 -168q78 -28 78 -109v-36q0 -53 -30 -73.5t-81 -1.5l-675 265q-75 28 -75 109z" />
<glyph unicode="=" horiz-adv-x="1185" d="M122 378v24q0 46 25 71t71 25h750q46 0 71 -25t25 -71v-24q0 -95 -96 -95h-750q-96 0 -96 95zM122 815v24q0 95 96 95h750q96 0 96 -95v-24q0 -47 -25 -71.5t-71 -24.5h-750q-46 0 -71 24.5t-25 71.5z" />
<glyph unicode="&#x3e;" horiz-adv-x="1058" d="M118 279v37q0 81 77 109l460 168q15 5 20.5 14t0 17.5t-20.5 13.5l-460 171q-77 28 -77 108v39q0 52 30 72t81 1l672 -267q75 -28 75 -109v-74q0 -81 -75 -109l-672 -265q-51 -19 -81 0.5t-30 73.5z" />
<glyph unicode="?" horiz-adv-x="1056" d="M68 1319q-3 87 53 101q79 14 119 20t123.5 12t193.5 6q222 0 330 -77.5t108 -239.5q0 -76 -29.5 -141t-75 -115t-93.5 -98.5t-92 -113.5t-63 -138q-12 -45 -36.5 -65.5t-67.5 -20.5h-59q-48 0 -74 26.5t-19 73.5q10 78 42.5 148t71.5 120t77.5 93.5t66 87t30.5 83.5 q7 68 -38 99.5t-150 31.5q-173 0 -317 -6q-96 -3 -99 91zM329 155q0 71 51 122.5t122 51.5t122.5 -51.5t51.5 -122.5t-51.5 -122t-122.5 -51t-122 51t-51 122z" />
<glyph unicode="@" horiz-adv-x="1548" d="M116 549q0 120 3.5 201t16.5 156.5t31 120.5t55 85.5t80.5 60t115 34.5t151.5 19.5t196 4.5h310q178 0 267 -78t89 -261v-528q0 -88 -88 -88h-56q-72 0 -94 64l-4 13q-9 29 -37 6q-59 -46 -144.5 -75t-183.5 -29q-128 0 -209 66.5t-81 190.5v98q0 106 68 166t193 60h324 q31 0 31 29v26q0 66 -29.5 90.5t-106.5 24.5h-249q-58 0 -90.5 -1t-73 -4.5t-61 -9.5t-46.5 -19t-37 -28.5t-25 -42.5t-18.5 -57.5t-10 -77t-6.5 -97t-1 -120.5q0 -73 1 -125t8 -100t11 -78.5t23.5 -58t29.5 -42.5t45 -27.5t55.5 -17.5t75 -8.5t89 -3.5h110.5h8h489 q48 0 68 -26.5t20 -76.5q0 -55 -19 -79t-66 -26q-263 -21 -490 -21q-132 0 -223 4t-172 18.5t-131 34.5t-91.5 60.5t-62.5 86.5t-35.5 123t-18.5 159t-4 204zM807 560q0 -96 98 -96q120 0 223 47q22 10 22 36v107q0 32 -32 30l-215 -8q-53 -3 -74.5 -22t-21.5 -63v-31z" />
<glyph unicode="A" horiz-adv-x="1331" d="M35 108l360 1178q39 127 172 127h196q133 0 172 -127l362 -1178q6 -21 6 -38q-1 -24 -13 -41q-22 -29 -73 -29h-121q-85 0 -107 82l-73 259q-8 30 -38 30h-425q-29 0 -37 -30l-74 -259q-22 -82 -106 -82h-121q-51 0 -73 29q-13 17 -13 41q0 17 6 38zM498 652 q-2 -7 -2 -13q0 -9 5 -15q8 -10 27 -11h276q31 0 31 25q0 6 -2 14l-110 392q-19 78 -24 102q-6 31 -32 31h-2q-27 0 -34 -31q-9 -43 -23 -102z" />
<glyph unicode="B" horiz-adv-x="1304" d="M143 146v1121q0 138 143 146h388h23q101 0 171 -8q78 -9 140 -31t96 -63t51.5 -101.5t17.5 -148.5q0 -144 -47 -219.5t-153 -95.5q-11 -2 -15 -7.5t0.5 -11t15.5 -7.5q131 -21 187.5 -112t56.5 -256q0 -73 -11.5 -127t-38 -93.5t-63 -64.5t-93 -40t-121 -21t-152.5 -6 h-457q-69 2 -104 39.5t-35 106.5zM448 283q0 -47 48 -47l190 -1q69 0 107 5.5t65.5 24.5t37 53.5t9.5 93.5q0 127 -47 171t-179 45h-196q-35 0 -35 -34v-311zM448 871q0 -35 35 -35h193q115 0 156.5 37t41.5 146q0 100 -43.5 129.5t-171.5 29.5h-164q-47 0 -47 -47v-260z " />
<glyph unicode="C" horiz-adv-x="1198" d="M95 707q0 205 31 342t103 225t183.5 126t277.5 38q198 0 337 -27q78 -18 78 -91q0 -9 -1 -19l-5 -52q-10 -87 -95 -87h-9q-107 6 -305 6q-63 0 -106.5 -14t-75.5 -45t-50 -86t-26 -130.5t-8 -185.5q0 -182 24.5 -280t80.5 -140t161 -42q230 0 333 10h11q84 0 94 -86 l6 -49q1 -10 1 -20q0 -73 -76 -90q-143 -35 -369 -35q-166 0 -277.5 38t-183.5 126.5t-103 225.5t-31 342z" />
<glyph unicode="D" horiz-adv-x="1392" d="M143 142v1130q0 143 113 149q206 11 437 11q171 0 282 -34t184.5 -119t104.5 -222.5t31 -349.5t-31 -350t-104.5 -222.5t-184.5 -119t-282 -34.5q-215 0 -410 11q-69 3 -104.5 41.5t-35.5 108.5zM455 278q0 -46 41 -49q29 0 95 -1t102 -1q107 0 164.5 43.5t83 145.5 t25.5 291t-25.5 291t-83 145.5t-164.5 43.5q-36 0 -99.5 -0.5t-91.5 -0.5q-47 0 -47 -47v-861z" />
<glyph unicode="E" horiz-adv-x="1175" d="M131 278v857q1 127 85.5 202.5t225.5 75.5h564q44 1 67 -29q20 -26 20 -69v-11l-3 -44q-3 -45 -28.5 -69t-70.5 -24h-450q-51 0 -73.5 -24.5t-22.5 -79.5v-180q0 -35 34 -35h433q46 0 71 -25t25 -71v-35q0 -95 -96 -95h-433q-34 0 -34 -35v-238q0 -55 23 -80t73 -25h450 q93 0 99 -92l3 -42v-11q0 -42 -20 -69q-23 -30 -67 -30h-564q-141 0 -225.5 75.5t-85.5 202.5z" />
<glyph unicode="F" horiz-adv-x="1132" d="M139 96v1031q0 132 85 209t227 77h541q44 -1 68 -30q21 -26 20 -66v-10l-3 -47q-6 -93 -100 -93h-414q-59 0 -85 -24t-26 -80v-207q0 -34 35 -34h411q46 0 71 -25t25 -71v-36q0 -46 -25 -71t-71 -25h-411q-35 0 -35 -34v-464q0 -46 -25 -71t-71 -25h-122q-95 0 -95 96z " />
<glyph unicode="G" horiz-adv-x="1320" d="M97 710q0 212 32.5 350.5t110 224.5t194.5 121t296 35q205 0 348 -31q77 -15 77 -89q0 -10 -1 -20l-5 -49q-11 -88 -96 -88h-6q-150 7 -308 7q-63 0 -105.5 -6t-80.5 -24.5t-60 -50.5t-38.5 -85.5t-23 -127t-6.5 -177.5q0 -176 22 -273t71.5 -138.5t138.5 -41.5 q110 0 226 38q28 8 28 39v395q0 95 96 95h110q95 0 95 -95v-623q0 -96 -95 -96h-49q-80 0 -102 74l-3 12q-3 15 -15 16.5t-28 -10.5q-161 -114 -373 -114q-238 0 -344 173t-106 559z" />
<glyph unicode="H" horiz-adv-x="1409" d="M144 96v1221q0 96 95 96h121q46 0 71 -24.5t25 -71.5v-410q0 -34 34 -34h430q34 0 34 34v410q0 47 25 71.5t71 24.5h121q95 0 95 -96v-1221q0 -96 -95 -96h-121q-46 0 -71 25t-25 71v501q0 34 -34 34h-430q-34 0 -34 -34v-501q0 -46 -25 -71t-71 -25h-121q-95 0 -95 96z " />
<glyph unicode="I" horiz-adv-x="598" d="M144 96v1221q0 96 95 96h119q46 0 71 -24.5t25 -71.5v-1221q0 -46 -25 -71t-71 -25h-119q-95 0 -95 96z" />
<glyph unicode="J" horiz-adv-x="755" d="M56 105l5 32q8 44 30 65t63 22l28 1q125 2 125 110v982q0 47 24.5 71.5t71.5 24.5h119q46 0 71 -24.5t25 -71.5v-989q0 -168 -84 -260t-232 -92q-87 0 -174 16q-74 15 -74 88q0 12 2 25z" />
<glyph unicode="K" horiz-adv-x="1288" d="M144 96v1221q0 96 95 96h121q46 0 71 -24.5t25 -71.5v-303q0 -50 -13 -130q-8 -37 27 -37h61q28 0 42 23l308 479q38 64 115 64h125q59 0 77 -33q7 -12 6 -27q0 -24 -19 -55l-292 -449q-30 -50 -82 -93q-27 -23 0 -47q66 -52 97 -105l304 -489q19 -30 19 -55 q0 -15 -7 -27q-19 -33 -77 -33h-137q-77 0 -114 66l-323 534q-14 24 -38 24h-65q-34 -1 -28 -39q14 -68 14 -98v-391q0 -46 -25 -71t-71 -25h-121q-95 0 -95 96z" />
<glyph unicode="L" horiz-adv-x="1089" d="M139 296v1021q0 96 95 96h121q47 0 71.5 -24.5t24.5 -71.5v-958q0 -56 25.5 -80.5t83.5 -24.5h394q92 0 98 -93l3 -51v-11q0 -41 -20 -68q-23 -31 -67 -31h-506q-164 0 -243.5 79.5t-79.5 216.5z" />
<glyph unicode="M" horiz-adv-x="1865" d="M120 98l43 1153q3 80 46 121t122 41h204q150 0 181 -145l165 -661q12 -49 31 -167q4 -31 20 -31q15 0 19 31q18 112 32 169l161 659q30 145 181 145h207q161 0 169 -162l45 -1153v-6q0 -92 -93 -92h-103q-93 0 -98 94l-41 1040q-3 35 -19 35q-18 0 -25 -31l-202 -800 q-33 -145 -182 -145h-107q-148 0 -181 145l-201 800q-7 31 -24 31t-20 -35l-36 -1040q-3 -94 -96 -94h-103q-47 0 -71.5 25.5t-23.5 72.5z" />
<glyph unicode="N" horiz-adv-x="1478" d="M143 96v1180q0 137 137 137h130q58 0 97 -23.5t66 -74.5l358 -727q53 -108 72 -154q10 -21 23 -21q17 0 15 31q-2 49 -2 149v724q0 47 24.5 71.5t71.5 24.5h105q46 0 71 -24.5t25 -71.5v-1180q0 -137 -138 -137h-131q-58 0 -96.5 23.5t-65.5 74.5l-366 739 q-23 45 -65 145q-9 22 -23 22q-15 0 -15 -27q3 -78 3 -157l2 -724q0 -96 -95 -96h-108q-95 0 -95 96z" />
<glyph unicode="O" horiz-adv-x="1400" d="M96 707q0 172 20.5 294.5t63 208.5t115.5 136t170.5 72.5t234.5 22.5q172 0 284 -34.5t186 -120.5t105 -225t31 -354t-31 -354t-105 -225t-186 -120.5t-284 -34.5q-137 0 -234.5 22.5t-170.5 72.5t-115.5 136t-63 208.5t-20.5 294.5zM424 707q0 -191 25 -293t83.5 -145.5 t167.5 -43.5t167.5 43.5t84 145.5t25.5 293q0 190 -25.5 292.5t-84 145.5t-167.5 43t-167.5 -43.5t-83.5 -145t-25 -292.5z" />
<glyph unicode="P" horiz-adv-x="1269" d="M143 96v1190q0 129 120 135q144 11 417 11q124 0 209.5 -13.5t149 -44.5t99.5 -85.5t53 -131t17 -187.5q0 -138 -25 -226t-85 -141t-149 -74t-228 -21q-107 0 -229 12q-37 3 -37 -33v-391q0 -46 -24.5 -71t-71.5 -25h-121q-95 0 -95 96zM455 783q0 -34 35 -34h183 q130 1 176 45.5t46 175.5t-46.5 176t-175.5 45q-29 0 -86 -0.5t-85 -0.5q-26 0 -36.5 -11t-10.5 -36v-360z" />
<glyph unicode="Q" horiz-adv-x="1404" d="M97 707q0 172 20.5 294.5t63.5 208.5t116 136t170.5 72.5t234.5 22.5q172 0 284 -34.5t186 -120.5t105 -225t31 -354t-31 -354t-105 -225t-186 -120.5t-284 -34.5q-137 0 -234.5 22.5t-170.5 72.5t-116 136t-63.5 208.5t-20.5 294.5zM425 707q0 -191 25.5 -293t84 -145.5 t167.5 -43.5t167.5 43.5t83.5 145.5t25 293t-25 292.5t-83.5 145t-167.5 43.5t-167.5 -43t-84 -145.5t-25.5 -292.5zM554 -232q-3 10 -3 22q0 26 14 60q26 61 81 61q16 0 35 -5l432 -98q48 -9 67 -40q10 -17 10 -39q0 -17 -6 -37l-30 -93q-14 -45 -46 -61q-15 -7 -34 -7 t-42 8l-427 177q-42 21 -51 52z" />
<glyph unicode="R" horiz-adv-x="1329" d="M143 96v1190q0 130 133 137q147 9 376 9q83 0 146 -4t124 -15.5t104.5 -31t81.5 -51t60.5 -75t35 -103t12.5 -135.5q0 -73 -14.5 -130t-36.5 -92t-56.5 -61t-64.5 -39t-71 -25q-36 -12 -2 -25q66 -25 108.5 -67t67.5 -138l94 -334q5 -18 5 -34q0 -26 -14 -44 q-22 -28 -74 -28h-132q-86 0 -106 83l-87 349q-18 66 -53 92.5t-98 26.5h-197q-35 0 -35 -35v-420q0 -96 -95 -96h-117q-95 0 -95 96zM450 827q0 -35 35 -35h203q124 1 169 43t45 160q0 117 -48 156.5t-185 39.5q-28 0 -83 -0.5t-83 -0.5q-53 0 -53 -47v-316z" />
<glyph unicode="S" horiz-adv-x="1191" d="M88 1049q0 220 117 305t397 85q216 0 382 -34q78 -16 78 -93q0 -8 -1 -17l-3 -31q-8 -90 -93 -90h-6q-144 4 -355 4q-118 0 -161.5 -25.5t-43.5 -103.5q0 -62 34 -98t114 -62l267 -92q162 -57 230.5 -160.5t68.5 -255.5q0 -223 -118 -315t-406 -92q-200 0 -398 35 q-84 15 -84 93q0 7 1 14l3 42q8 90 99 90h6q298 -6 375 -6q119 0 163.5 31.5t44.5 105.5q0 62 -31 97t-103 59l-283 100q-156 56 -225 159.5t-69 254.5z" />
<glyph unicode="T" horiz-adv-x="1230" d="M37 1256v61q0 96 95 96h967q95 0 95 -96v-61q0 -96 -95 -96h-293q-34 0 -34 -35v-1029q0 -46 -25 -71t-71 -25h-122q-46 0 -71 25t-25 71v1029q0 35 -35 35h-291q-95 0 -95 96z" />
<glyph unicode="U" horiz-adv-x="1394" d="M132 562v755q0 47 25 71.5t71 24.5h121q47 0 71.5 -24.5t24.5 -71.5v-755q0 -194 54 -265.5t199 -71.5q143 0 197 71.5t54 265.5v755q0 47 24.5 71.5t71.5 24.5h122q47 0 71.5 -24.5t24.5 -71.5v-755q0 -323 -124 -456t-426 -133q-319 0 -450 133t-131 456z" />
<glyph unicode="V" horiz-adv-x="1306" d="M45 1304q-6 20 -6 37q-1 25 13 43q22 29 75 29h126q87 0 106 -85l235 -931q6 -24 15.5 -72t11.5 -56q6 -31 33 -31q25 0 31 32q6 37 28 126l233 932q19 85 107 85h126q53 0 75 -29q14 -17 13 -43q0 -17 -6 -37l-335 -1163q-40 -141 -187 -141h-172q-146 0 -186 141z" />
<glyph unicode="W" horiz-adv-x="1998" d="M69 1307q-2 12 -2 23q1 34 19 55q24 28 75 28h128q93 0 102 -93l124 -879q9 -85 15 -174q2 -34 22 -34t24 33q11 83 27 176l140 817q24 154 180 154h155q158 0 181 -155l138 -819q21 -130 25 -173q4 -33 25 -33t23 34q7 102 15 170l124 883q11 93 103 93h126q51 0 75 -28 q18 -21 18 -54q0 -11 -2 -23l-192 -1154q-24 -154 -180 -154h-196q-157 0 -180 155l-139 848q-5 27 -11 78t-9 69q-3 33 -22 33q-20 0 -24 -33q-6 -59 -19 -148l-137 -846q-22 -156 -181 -156h-196q-156 0 -180 154z" />
<glyph unicode="X" horiz-adv-x="1323" d="M73 33q-9 14 -9 32q0 23 15 53l297 584q10 23 0 48l-272 547q-14 29 -14 51q0 18 10 33q20 32 78 32h119q80 0 114 -75l218 -463q11 -23 33 -23q20 0 31 24l218 463q33 74 115 74h120q58 -1 78 -33q9 -14 8 -32q0 -23 -14 -52l-272 -546q-10 -25 1 -48l297 -585 q15 -30 15 -53q0 -18 -9 -32q-20 -32 -78 -32h-121q-81 0 -116 74l-243 509q-12 23 -30 23q-22 0 -32 -22l-243 -511q-35 -73 -116 -73h-120q-58 0 -78 33z" />
<glyph unicode="Y" horiz-adv-x="1245" d="M52 1382q19 31 74 31h120q80 0 111 -73l204 -445q30 -65 45 -149q5 -26 12 -29q2 -1 6 -1q8 0 10.5 5t5.5 21q1 3 1 4q14 76 46 150l203 444q31 73 111 73h117q56 0 76 -31q8 -14 8 -32q0 -22 -14 -50l-389 -792q-20 -43 -20 -88v-324q0 -96 -95 -96h-121q-47 0 -71.5 25 t-24.5 71v325q0 47 -19 88l-391 791q-14 28 -14 50q0 18 9 32z" />
<glyph unicode="Z" horiz-adv-x="1193" d="M82 96v77q0 63 40 120l601 840q13 17 7 29t-29 12h-508q-47 0 -71.5 25t-24.5 71v47q0 47 24.5 71.5t71.5 24.5h809q46 0 71 -24.5t25 -71.5v-77q0 -63 -40 -120l-600 -839q-13 -17 -7 -29.5t29 -12.5h539q95 0 95 -96v-47q0 -96 -95 -96h-841q-46 0 -71 25t-25 71z" />
<glyph unicode="[" horiz-adv-x="708" d="M156 -180v1595q0 70 44 114t114 44h246q82 0 82 -82v-25q0 -82 -82 -82h-83q-17 0 -27.5 -10.5t-10.5 -27.5v-1457q0 -17 10.5 -27.5t27.5 -10.5h83q82 0 82 -82v-25q0 -82 -82 -82h-246q-75 0 -116.5 36.5t-41.5 121.5z" />
<glyph unicode="\" horiz-adv-x="1128" d="M95 1309q-52 104 63 104h54q72 0 103 -63l719 -1394q52 -104 -60 -104h-58q-72 0 -103 63z" />
<glyph unicode="]" horiz-adv-x="708" d="M67 -231q0 39 21 60.5t60 21.5h83q17 0 28 10.5t11 27.5v1457q0 17 -11 27.5t-28 10.5h-83q-81 0 -81 82v25q0 82 81 82h245q70 0 114.5 -44t44.5 -114v-1595q0 -70 -44.5 -114t-114.5 -44h-245q-81 0 -81 82v25z" />
<glyph unicode="^" horiz-adv-x="946" d="M105 891l227 342q34 51 93 51h99q58 0 93 -51l224 -342q41 -67 -15 -101q-62 -32 -106 22l-221 265q-14 16 -24.5 16t-24.5 -16l-225 -266q-46 -52 -105 -21q-59 32 -15 101z" />
<glyph unicode="_" horiz-adv-x="1044" d="M-20 -88q0 88 87 88h911q87 0 87 -88v-23q0 -88 -87 -88h-911q-87 0 -87 88v23z" />
<glyph unicode="`" horiz-adv-x="722" d="M92.5 1307q-8.5 30 14.5 67l43 62q46 71 116 23l275 -208q67 -45 24 -111t-116 -35l-310 155q-38 17 -46.5 47z" />
<glyph unicode="a" horiz-adv-x="1161" d="M74 266v102q0 121 82 189t227 68h336q24 0 24 25v34q-1 71 -34.5 94.5t-130.5 23.5q-223 0 -338 -6h-9q-83 0 -98 94q-2 14 -2 26q0 82 91 95q192 27 426 27q101 0 172.5 -18t124 -60t77.5 -114t25 -177v-569q0 -46 -26.5 -73t-73.5 -27h-59q-37 0 -58 13t-32 48l-6 13 q-10 30 -30 11q-129 -109 -359 -109q-145 0 -237 76t-92 214zM373 308q0 -54 28.5 -79.5t89.5 -25.5q45 0 72 1.5t73 13t85 34.5q23 11 23 40v123q0 28 -28 28h-245q-53 -1 -75.5 -26t-22.5 -71v-38z" />
<glyph unicode="b" d="M123 132v1202q0 100 100 100h104q98 0 100 -100l1 -149v-11q0 -75 -13 -148q-4 -23 4.5 -29.5t28.5 1.5q112 40 268 40q102 0 174 -25t126.5 -84.5t81 -165t26.5 -259.5q0 -97 -12.5 -172.5t-46 -144.5t-88.5 -114t-143.5 -71.5t-207.5 -26.5q-95 0 -225 15.5t-203 37.5 q-75 23 -75 104zM425 739l1 -480q0 -38 42 -46q66 -12 135 -12h28q102 4 142 68t40 240q0 95 -9.5 153t-33 89.5t-55.5 42t-86 10.5q-92 0 -174 -17q-30 -4 -30 -48z" />
<glyph unicode="c" horiz-adv-x="1034" d="M82 507q0 292 115 411.5t394 119.5q154 0 286 -33q73 -19 73 -92q0 -13 -2 -29q-18 -96 -109 -96q-16 0 -90 1.5t-107 1.5q-138 0 -190.5 -59.5t-52.5 -224.5q0 -167 52.5 -226.5t190.5 -59.5q128 0 212 7q7 1 14 1q83 0 98 -88q3 -17 3 -33q0 -75 -73 -95 q-140 -38 -308 -38q-278 0 -392 119.5t-114 412.5z" />
<glyph unicode="d" horiz-adv-x="1208" d="M84 504q0 154 26.5 259.5t81.5 165t127 84.5t174 25q156 0 268 -40q20 -8 28 -1.5t4 29.5q-12 68 -12 147v12l1 149q2 100 100 100h104q99 0 99 -100v-1202q0 -82 -74 -104q-73 -22 -203 -37.5t-225 -15.5q-119 0 -207.5 26.5t-143.5 71.5t-89 114t-46.5 144.5 t-12.5 172.5zM396 508q0 -176 39.5 -240t141.5 -68h25q68 0 138 13q42 8 42 46l2 480q0 44 -31 48q-82 17 -174 17q-54 0 -86 -10.5t-55.5 -42.5t-32.5 -90t-9 -153z" />
<glyph unicode="e" horiz-adv-x="1146" d="M81 504q0 200 53.5 317t163.5 167t297 50q252 0 365 -87t114 -269q0 -139 -63 -208q-64 -70 -206 -70h-363q-38 0 -32 -34q14 -90 67.5 -121.5t165.5 -31.5q98 0 286 16h13q83 0 97 -87q3 -16 3 -30q0 -73 -71 -94q-157 -47 -364 -47q-285 0 -405.5 123.5t-120.5 405.5z M400 618q0 -16 6 -24q8 -8 26 -8h264q51 0 67 24t16 81q0 70 -38 97.5t-135 28.5h-6q-114 0 -154 -39q-46 -45 -46 -160z" />
<glyph unicode="f" horiz-adv-x="827" d="M39 902q0 49 23 74.5t73 29.5l47 2q34 3 34 35v120q0 150 78 231t254 81q87 0 225 -10q89 -7 89 -90q0 -11 -2 -24q-14 -98 -106 -98h-99q-76 0 -106 -29t-30 -101v-79q0 -34 34 -34h146q46 0 72.5 -25.5t26.5 -75.5q0 -103 -99 -103h-146q-34 0 -34 -34v-673 q0 -99 -99 -99h-105q-99 0 -99 99v673q0 34 -33 34h-50q-94 2 -94 96z" />
<glyph unicode="g" d="M82 502q0 98 12.5 174.5t46 146.5t88.5 115.5t143 72.5t207 27q92 0 214.5 -14t203.5 -37q87 -23 87 -119v-746q0 -96 -12.5 -172t-45.5 -145.5t-86.5 -116.5t-138 -76t-197.5 -32q-40 -1 -78 -1q-177 0 -305 23q-71 17 -71 107v14q4 52 28 77q23 25 66 25h3q36 0 113 -3 q63 -2 110 -2h18q51 1 90 5q105 10 148.5 58t51.5 135q6 22 8 44q2 16 -3.5 20t-24.5 -5q-55 -24 -92 -38t-98 -25q-55 -11 -113 -11h-10q-189 6 -276 128.5t-87 370.5zM393 496q0 -148 35.5 -203t142.5 -55q75 0 185 50q26 9 26 38v436q0 31 -32 36q-74 15 -142 15h-22 q-76 -3 -116.5 -31.5t-58.5 -95t-18 -190.5z" />
<glyph unicode="h" horiz-adv-x="1226" d="M124 99v1235q0 100 100 100h104q99 0 99 -100l2 -210q0 -84 -11 -146q-3 -21 10 -27t35 6q182 81 353 81q144 0 218.5 -79.5t74.5 -233.5v-626q0 -99 -100 -99h-104q-99 0 -99 99v565q0 69 -21 94t-76 25q-98 0 -254 -55q-28 -10 -28 -40v-589q0 -99 -99 -99h-104 q-100 0 -100 99z" />
<glyph unicode="i" horiz-adv-x="565" d="M117 1312q0 68 46.5 112.5t119.5 44.5q72 0 118.5 -44.5t46.5 -112.5q0 -69 -46.5 -113.5t-118.5 -44.5q-73 0 -119.5 44.5t-46.5 113.5zM131 99v812q0 99 100 99h101q100 0 100 -99v-812q0 -99 -100 -99h-101q-100 0 -100 99z" />
<glyph unicode="j" horiz-adv-x="569" d="M48 -270q-1 6 -1 13q0 30 23 65q65 105 65 240v863q0 99 99 99h103q99 0 99 -99v-863q0 -119 -50 -226.5t-139 -178.5q-28 -23 -60 -23q-41 0 -89 39q-44 36 -50 71zM117 1312q0 68 46.5 112.5t119.5 44.5q72 0 118 -44.5t46 -112.5q0 -69 -46 -113.5t-118 -44.5 q-73 0 -119.5 44.5t-46.5 113.5z" />
<glyph unicode="k" horiz-adv-x="1134" d="M124 99v1235q0 100 100 100h104q99 0 99 -100l1 -493q0 -74 -9 -146q-2 -17 5 -27t22 -10h37q22 0 38 22l194 267q44 63 121 63h112q63 0 81 -35q6 -11 6 -25q0 -27 -25 -61l-174 -230q-26 -41 -70 -79q-27 -23 1 -48q39 -32 69 -82l219 -330q21 -32 21 -58q0 -16 -8 -28 q-20 -34 -79 -34h-117q-81 0 -119 68l-231 377q-15 24 -39 24h-37q-32 0 -27 -38q8 -62 8 -114v-218q0 -99 -99 -99h-104q-100 0 -100 99z" />
<glyph unicode="l" horiz-adv-x="669" d="M126 254v1080q0 100 100 100h103q99 0 99 -100l-1 -1004q0 -54 25.5 -78.5t78.5 -24.5h14q89 0 96 -93l2 -29q1 -8 1 -16q0 -86 -73 -99q-78 -14 -157 -14q-132 0 -210 73t-78 205z" />
<glyph unicode="m" horiz-adv-x="1802" d="M124 99v812q0 99 100 99h50q43 0 65.5 -9.5t33.5 -38.5l4 -11q13 -36 43 -16q78 52 175.5 77.5t175.5 25.5q86 0 142.5 -21t96.5 -76q21 -26 51 -5q146 102 340 102q139 0 210.5 -72t71.5 -209v-658q0 -99 -99 -99h-103q-100 0 -100 99v565q-1 65 -24 92t-83 27 q-48 0 -91 -10t-106 -44q-26 -13 -26 -43q0 -43 -1 -65v-522q-2 -99 -101 -99h-92q-100 0 -100 99v565q1 66 -24.5 92.5t-83.5 26.5q-99 0 -194 -51q-28 -10 -29 -42v-591q-2 -99 -100 -99h-102q-100 0 -100 99z" />
<glyph unicode="n" horiz-adv-x="1226" d="M124 99v812q0 99 100 99h57q73 0 95 -53l3 -12q11 -31 44 -12q191 105 393 105q144 0 218.5 -79.5t74.5 -233.5v-626q0 -99 -100 -99h-104q-99 0 -99 99v565q0 69 -21 94t-76 25q-120 0 -256 -54q-26 -7 -26 -35v-595q0 -99 -99 -99h-104q-100 0 -100 99z" />
<glyph unicode="o" horiz-adv-x="1185" d="M79 504q0 285 117.5 409.5t397.5 124.5q278 0 395.5 -124.5t117.5 -409.5q0 -283 -117.5 -406.5t-395.5 -123.5q-280 0 -397.5 123.5t-117.5 406.5zM396 504q0 -175 41 -239.5t157 -64.5q113 0 155 65.5t42 238.5q0 176 -42 242t-155 66q-116 0 -157 -65.5t-41 -242.5z " />
<glyph unicode="p" d="M123 -305v1187q0 80 75 103q73 22 203 37.5t225 15.5q119 0 207.5 -26.5t143.5 -71.5t88.5 -114t46 -144.5t12.5 -172.5q0 -154 -26.5 -259.5t-81 -165t-126.5 -84.5t-174 -25q-156 0 -268 40q-20 8 -28.5 2t-4.5 -29q13 -72 13 -135v-9l-1 -149q-1 -99 -100 -99h-104 q-100 0 -100 99zM425 274q0 -44 30 -48q82 -17 174 -17q54 0 86 10.5t55.5 42.5t33 90t9.5 153q0 176 -40 240t-142 68q-14 1 -28 1q-69 0 -135 -13q-42 -8 -42 -47z" />
<glyph unicode="q" horiz-adv-x="1210" d="M86 500q0 99 12.5 176t45 147t87 115.5t142.5 72.5t207 27q92 0 211 -13t211 -38q87 -21 87 -119v-1173q0 -99 -99 -99h-103q-99 0 -100 99l-2 180v23q0 78 12 137q3 20 -4 27t-22 -1q-159 -87 -327 -87q-185 0 -271.5 129t-86.5 397zM397 491q0 -158 33.5 -220 t130.5 -62q53 0 97.5 15.5t102.5 47.5q26 9 26 38v452q0 30 -33 36q-86 15 -152 15h-21q-72 -3 -110 -30.5t-56 -95.5t-18 -196z" />
<glyph unicode="r" horiz-adv-x="870" d="M124 96v819q0 95 96 95h53q75 0 93 -53l4 -10q13 -38 46 -16q151 88 329 102q8 1 14 1q37 0 59 -24q20 -22 20 -58q0 -9 -1 -18l-7 -85q-5 -44 -27.5 -65.5t-64.5 -25.5q-167 -18 -280 -40q-31 -8 -31 -38v-584q0 -46 -24.5 -71t-71.5 -25h-111q-46 0 -71 25t-25 71z" />
<glyph unicode="s" horiz-adv-x="1079" d="M80 750q0 149 98 217q97 67 321 67h7q184 -2 376 -21q84 -11 84 -92q0 -9 -1 -18q-7 -53 -31 -76q-23 -22 -68 -22h-4q-196 4 -298 4q-122 0 -156.5 -11t-34.5 -56q0 -43 25 -59t103 -36l259 -62q132 -34 190.5 -101t58.5 -197q0 -172 -106 -239t-356 -67q-185 0 -362 19 q-84 11 -84 95q0 8 1 17q4 52 28 74q23 22 68 21h4q237 -3 260 -3q160 0 207.5 13.5t47.5 63.5q0 42 -29.5 59.5t-113.5 37.5l-253 61q-135 35 -188 109.5t-53 201.5z" />
<glyph unicode="t" horiz-adv-x="839" d="M36 902q0 52 24.5 76t76.5 27l44 2q34 3 34 36v154q0 95 95 95h111q96 0 96 -95v-152q0 -35 35 -35h142q103 0 103 -101q0 -53 -24 -78t-79 -25h-142q-35 0 -35 -35v-441q0 -58 22 -80.5t80 -22.5h49q52 -1 76 -28t29 -82q1 -10 1 -20q0 -91 -79 -103q-105 -18 -190 -18 q-138 0 -214 76t-76 215v504q0 35 -34 35h-44q-53 1 -77 24t-24 72z" />
<glyph unicode="u" horiz-adv-x="1208" d="M122 253v658q0 99 99 99h104q100 0 100 -99v-564q0 -68 21.5 -94t76.5 -26q111 0 236 54q27 7 27 35v595q0 99 99 99h105q99 0 99 -99v-812q0 -99 -99 -99h-58q-79 0 -98 53l-3 11q-11 29 -41 11q-175 -98 -384 -98q-139 0 -211.5 70.5t-72.5 205.5z" />
<glyph unicode="v" horiz-adv-x="1126" d="M52 901q-7 22 -7 39q0 22 12 40q21 30 73 30h119q86 0 108 -82l149 -552q14 -50 37 -147q7 -31 21 -31q12 0 20 30q30 120 38 148l149 552q21 82 107 82h119q52 0 73 -30q12 -17 12 -40q0 -18 -7 -39l-261 -777q-41 -124 -174 -124h-153q-133 0 -173 125z" />
<glyph unicode="w" horiz-adv-x="1720" d="M59 903q-4 16 -4 31q-1 29 15 48q22 29 75 29h108q89 0 104 -90l113 -564q5 -25 11 -71.5t9 -62.5q5 -32 17 -32q13 0 17 31q9 54 22 135l90 500q21 142 166 142h116q145 0 166 -142l89 -499q13 -88 23 -136q6 -31 17 -31q14 0 18 32q3 16 10 62.5t11 72.5l111 564 q15 89 104 89h109q52 0 74 -29q15 -19 15 -48q0 -14 -4 -31l-185 -768q-30 -135 -171 -135h-154q-146 0 -167 142l-90 507q-6 34 -17 138q-3 32 -17 32q-12 0 -17 -32q-6 -46 -20 -138l-88 -507q-22 -142 -166 -142h-153q-142 0 -171 135z" />
<glyph unicode="x" horiz-adv-x="1159" d="M70 36q-8 14 -8 30q0 26 19 58l217 363q9 15 9 31t-10 33l-194 339q-19 33 -19 58q0 16 8 30q20 34 81 35h107q86 0 121 -74l149 -287q12 -21 30 -21q19 0 30 20l149 288q35 74 120 74h107q61 0 81 -35q8 -14 8 -31q0 -25 -18 -57l-197 -339q-9 -16 -10 -31q0 -16 11 -32 l217 -365q19 -32 19 -57q-1 -17 -9 -31q-20 -35 -81 -35h-108q-83 0 -118 72l-172 321q-11 20 -29 20q-19 0 -29 -20l-170 -320q-37 -73 -121 -73h-108q-62 0 -82 36z" />
<glyph unicode="y" horiz-adv-x="1150" d="M53 901q-8 22 -8 41q0 22 12 38q21 30 74 30h121q85 0 106 -82l168 -572q12 -49 28 -119q6 -32 18 -32q15 0 21 29q2 9 13.5 55t17.5 67l167 572q21 82 105 82h123q53 0 74 -30q12 -16 12 -38q0 -19 -8 -41l-320 -915q-20 -58 -46 -110t-67.5 -105.5t-90.5 -92.5 t-118 -65t-148 -29h-5q-80 0 -96 90q-2 12 -2 23q0 66 76 95q113 44 171 131q22 31 25 38q10 17 2.5 28t-28.5 12q-85 9 -113 93z" />
<glyph unicode="z" horiz-adv-x="1067" d="M79 96v52q0 67 47 117l468 486q16 17 10.5 30t-28.5 13h-392q-96 0 -96 95v26q0 95 96 95h700q95 0 95 -95v-53q0 -67 -47 -117l-466 -486q-16 -17 -10.5 -29.5t28.5 -12.5h410q95 0 95 -96v-25q0 -96 -95 -96h-720q-95 0 -95 96z" />
<glyph unicode="{" horiz-adv-x="694" d="M70 641v60q0 22 10.5 40.5t19 26.5t32.5 28q26 14 35 38t9 81v373q0 144 89 221.5t275 70.5q81 -4 81 -94q0 -50 -15 -71.5t-59 -32.5q-46 -8 -64.5 -36t-18.5 -86v-311q2 -123 -35.5 -183t-141.5 -84q-10 -2 -13.5 -6.5t0 -10t12.5 -9.5q105 -35 145 -92.5t42 -161.5 v-431q0 -55 17 -82t60 -35q52 -20 65.5 -42t13.5 -72q0 -80 -81 -85q-186 -7 -275 70.5t-89 221.5v490q0 47 -12 69t-41 38q-31 23 -46 44t-15 53z" />
<glyph unicode="|" horiz-adv-x="534" d="M161 -250v1754q0 95 95 95h22q95 0 95 -95v-1754q0 -96 -95 -96h-22q-95 0 -95 96z" />
<glyph unicode="}" horiz-adv-x="696" d="M67 -252q0 48 15 71.5t59 31.5q46 7 64.5 34.5t18.5 85.5v431q2 104 41 161t144 93q15 6 15 14.5t-15 11.5q-103 24 -141 84t-36 183v311q0 56 -17 84t-60 36q-52 20 -65.5 43t-13.5 72q0 81 80 85q186 7 275.5 -70.5t89.5 -221.5v-373q0 -57 8.5 -80.5t34.5 -38.5 q1 -1 9.5 -8t10 -8.5t9 -7.5t9 -8t6.5 -8t6.5 -9.5t5 -9.5t4.5 -11t2 -11.5t1 -13.5v-60q0 -32 -14.5 -52.5t-46.5 -42.5q-30 -16 -42 -39t-12 -70v-490q0 -144 -89 -221.5t-275 -70.5q-81 5 -81 93z" />
<glyph unicode="~" horiz-adv-x="1050" d="M125 585q13 80 58.5 120t108.5 38q66 -3 227.5 -51t194.5 -52q48 -7 61 20q11 11 24 32t25 30.5t33 9.5q35 0 55.5 -22.5t19.5 -64.5q0 -105 -48 -159t-124 -50q-72 3 -232 51t-192 52q-46 7 -59 -21q-10 -11 -23 -32.5t-25 -31.5t-33 -10q-38 0 -60.5 38t-10.5 103z" />
<glyph unicode="&#xa2;" horiz-adv-x="1067" d="M82 712q0 152 28 252.5t93.5 162.5t163 88t246.5 28q20 -2 22 19l12 106q2 20 16 32.5t35 12.5h9q26 0 40 -15.5t11 -40.5l-11 -102q-3 -19 19 -23q57 -5 129 -26q71 -20 54 -112q-10 -56 -31.5 -80.5t-63.5 -23.5q-83 4 -120 5q-19 0 -22 -18l-52 -527q-1 -10 5 -17 t16 -7q100 2 189 11q44 2 66.5 -22t29.5 -77q14 -94 -53 -113q-112 -35 -267 -43q-18 -2 -21 -18l-12 -119q-2 -20 -16 -32.5t-35 -12.5h-8q-26 0 -40 15.5t-11 40.5l11 107q3 19 -19 22q-225 16 -319 137.5t-94 389.5zM391 712q0 -126 30.5 -188.5t103.5 -82.5q9 -3 16 2 t9 15l50 512q1 11 -4.5 17.5t-15.5 5.5q-105 -10 -147 -72.5t-42 -208.5z" />
<glyph unicode="&#xa3;" horiz-adv-x="1198" d="M96 739v10q-1 35 18 54.5t54 19.5h39q36 0 34 35l-14 197q-6 94 9 161.5t46 110.5t86.5 67.5t120.5 34t158 9.5q136 0 325 -13q47 -3 70.5 -29.5t20.5 -73.5l-3 -46q-8 -92 -99 -92q-219 3 -275 3q-91 0 -125.5 -30.5t-27.5 -113.5l14 -187q3 -33 36 -33h260q74 0 72 -76 l-1 -10q-3 -71 -75 -71h-240q-35 0 -33 -36q9 -154 -14.5 -226.5t-97.5 -138.5q-26 -25 9 -19q47 6 114 6h441q46 0 71 -25t25 -71v-60q0 -46 -25 -71t-71 -25h-820q-95 0 -95 96v80q0 36 15.5 61t49.5 55q62 49 79.5 121.5t9.5 218.5q-2 34 -36 34h-51q-73 0 -74 73z" />
<glyph unicode="&#xa5;" horiz-adv-x="1347" d="M103.5 1381.5q19.5 31.5 75.5 31.5h120q80 0 111 -73l203 -445q32 -69 46 -149q6 -30 18 -30q11 0 17 30q14 76 46 150l202 444q31 73 112 73h117q56 0 75.5 -31.5t-5.5 -81.5l-279 -566q-10 -22 -5 -29.5t28 -7.5h103q73 0 73 -80q0 -79 -73 -79h-196q-26 0 -37 -22 l-12 -38q-2 -11 6 -19t23 -8h216q73 0 73 -77q0 -81 -73 -81h-225q-31 0 -31 -30v-167q0 -46 -25 -71t-71 -25h-120q-46 0 -71 25t-25 71v167q0 30 -31 30h-221q-39 0 -56 19.5t-18 61.5q-3 77 71 77h215q32 0 29 28l-12 37q-10 22 -37 22h-192q-73 0 -76 78q-3 81 72 81 h104q23 0 27.5 7.5t-5.5 29.5l-281 566q-25 50 -5.5 81.5z" />
<glyph unicode="&#xa8;" horiz-adv-x="868" d="M110 1321q0 58 39 95.5t101 37.5q61 0 100 -37.5t39 -95.5q0 -59 -39 -96t-100 -37q-62 0 -101 37t-39 96zM481 1321q0 58 39 95.5t101 37.5q61 0 100 -37.5t39 -95.5q0 -59 -39 -96t-100 -37q-62 0 -101 37t-39 96z" />
<glyph unicode="&#xa9;" horiz-adv-x="1658" d="M89 707q0 157 58 294.5t157 233.5t235.5 151t289.5 55q206 0 375 -93.5t267.5 -262.5t98.5 -378t-98.5 -378t-267.5 -262.5t-375 -93.5q-153 0 -289.5 55t-235.5 151t-157 233.5t-58 294.5zM242 707q0 -166 79.5 -301.5t213.5 -211t294 -75.5q161 0 295.5 75.5t213.5 211 t79 301.5q0 125 -46.5 235t-125.5 186.5t-187.5 121t-228.5 44.5q-160 0 -294 -75t-213.5 -210.5t-79.5 -301.5zM440 710q0 234 90 329.5t309 95.5q125 0 203 -13q78 -14 67 -98q-10 -82 -86 -81q-156 3 -177 3q-102 0 -138.5 -50.5t-36.5 -185.5t36.5 -185.5t138.5 -50.5 q112 0 196 3q78 4 89 -76q9 -83 -66 -99q-100 -19 -226 -19q-219 0 -309 96t-90 331z" />
<glyph unicode="&#xab;" horiz-adv-x="1060" d="M107 445q-52 70 1 136l229 299q57 72 137 21q79 -50 29 -131l-151 -232q-16 -24 0 -48l153 -241q48 -82 -31 -132t-135 22zM532 445q-52 70 1 136l230 299q57 71 136 21q80 -51 29 -131l-151 -232q-16 -24 0 -48l154 -241q48 -81 -32 -132q-79 -50 -135 22z" />
<glyph unicode="&#xad;" horiz-adv-x="847" d="M119 510v24q0 87 87 87h435q88 0 88 -87v-24q0 -87 -88 -87h-435q-87 0 -87 87z" />
<glyph unicode="&#xae;" horiz-adv-x="1071" d="M80 985q0 189 133.5 321.5t323.5 132.5q189 0 322 -132.5t133 -321.5q0 -190 -133 -323.5t-322 -133.5q-125 0 -230 61t-166 166t-61 230zM172 985q0 -152 107 -260t258 -108q149 0 256 108t107 260t-107 259t-256 107q-151 0 -258 -107t-107 -259zM333 798v387 q0 45 45 47q47 3 172 3q115 0 163.5 -29.5t48.5 -107.5q0 -50 -19.5 -76.5t-71.5 -38.5q-23 -7 -2 -12q49 -16 64 -71l32 -95q8 -24 -2.5 -38.5t-35.5 -14.5h-40q-41 0 -50 39l-31 104q-7 22 -21 30.5t-40 8.5h-64q-20 0 -20 -21v-115q0 -46 -47 -46h-34q-47 0 -47 46z M461 1039q0 -21 20 -21h66q50 1 67.5 14.5t17.5 49.5q0 37 -17 48.5t-68 11.5h-66q-20 0 -20 -21v-82z" />
<glyph unicode="&#xb4;" horiz-adv-x="722" d="M139 1145q-42 58 27 106l275 208q70 48 115 -23l44 -62q23 -37 14.5 -67t-46.5 -47l-310 -155q-70 -31 -107 22z" />
<glyph unicode="&#xb8;" horiz-adv-x="507" d="M66 -422q8 34 27 49.5t54 21.5q108 18 115 111q2 20 -8.5 31.5t-40.5 12.5q-39 1 -55 19.5t-10 48.5q6 29 24 42t52 15q123 7 180 -21t53 -119q-5 -132 -96 -206t-232 -75q-37 -1 -53.5 19t-9.5 51z" />
<glyph unicode="&#xbb;" horiz-adv-x="1060" d="M131 249l153 241q16 24 0 48l-150 232q-51 80 29 131q80 50 136 -21l230 -299q53 -66 1 -136l-232 -306q-56 -72 -136 -22q-79 50 -31 132zM556 249l154 241q16 24 0 48l-151 232q-51 80 29 131q80 50 136 -21l230 -299q53 -66 1 -136l-232 -306q-56 -72 -135 -22 q-80 51 -32 132z" />
<glyph unicode="&#x2c6;" horiz-adv-x="917" d="M119 1154q-42 57 13 112l177 174q27 26 57.5 34t90.5 8q66 0 98.5 -9t58.5 -35l174 -177q56 -57 13 -109q-44 -61 -111 -16l-195 132q-33 23 -67 0l-198 -132q-68 -43 -111 18z" />
<glyph unicode="&#x2da;" horiz-adv-x="632" d="M75 1318q0 99 71 167.5t171 68.5q99 0 170.5 -68.5t71.5 -167.5t-71 -167t-171 -68t-171 68t-71 167zM214 1318q0 -47 29.5 -76t73.5 -29t73 29t29 76t-29.5 76.5t-72.5 29.5q-44 0 -73.5 -29.5t-29.5 -76.5z" />
<glyph unicode="&#x2dc;" horiz-adv-x="901" d="M98 1297q12 82 58.5 124t109.5 37q73 -5 176 -47.5t150 -50.5q54 -7 67 24q9 9 21.5 27.5t24 27.5t31.5 9q33 0 52.5 -20t19.5 -57q1 -105 -47 -160.5t-126 -50.5q-78 6 -185 50.5t-144 50.5q-51 7 -66 -28q-8 -9 -20.5 -28.5t-23.5 -28t-31 -8.5q-35 0 -56 34.5 t-11 94.5z" />
<glyph unicode="&#x401;" horiz-adv-x="1175" d="M131 278v857q1 127 85.5 202.5t225.5 75.5h564q44 0 67 -29.5t20 -79.5l-3 -44q-3 -45 -28.5 -69t-70.5 -24h-450q-51 0 -73.5 -24.5t-22.5 -79.5v-180q0 -35 34 -35h433q46 0 71 -25t25 -71v-35q0 -95 -96 -95h-433q-34 0 -34 -35v-238q0 -55 23 -80t73 -25h450 q93 0 99 -92l3 -42q3 -50 -20 -80t-67 -30h-564q-141 0 -225.5 75.5t-85.5 202.5zM318 1711q0 58 39 95t101 37q61 0 100 -37t39 -95q0 -59 -39 -96.5t-100 -37.5q-62 0 -101 37.5t-39 96.5zM689 1711q0 58 39.5 95t101.5 37q61 0 99.5 -37t38.5 -95q0 -59 -38.5 -96.5 t-99.5 -37.5q-62 0 -101.5 37.5t-39.5 96.5z" />
<glyph unicode="&#x402;" horiz-adv-x="1562" d="M37 1256v61q0 96 95 96h962q95 0 95 -96v-61q0 -96 -95 -96h-290q-35 0 -35 -35v-254q0 -20 15.5 -25t41.5 6q158 68 316 68q68 0 120 -11t99 -40t76.5 -77t47 -125t17.5 -182q0 -130 -32 -225.5t-93 -154t-141.5 -88t-186.5 -35.5q-50 -4 -73.5 20.5t-31.5 87.5t8 88 t64 46q93 23 133 76t40 164q0 91 -17 134.5t-48 55.5t-97 12q-114 0 -231 -50q-27 -10 -27 -40v-480q0 -46 -24.5 -71t-71.5 -25h-122q-95 0 -95 96v1029q0 35 -35 35h-289q-95 0 -95 96z" />
<glyph unicode="&#x403;" horiz-adv-x="1091" d="M142 97v1020q0 134 83.5 218t213.5 84q366 0 533 -13q43 -3 67 -30.5t21 -71.5l-3 -45q-3 -43 -29 -67.5t-69 -24.5h-394q-60 0 -85.5 -25.5t-25.5 -86.5v-958q0 -45 -26 -71t-71 -26h-118q-45 0 -71 26t-26 71zM479 1551q-42 59 27 107l275 207q70 48 116 -23l43 -62 q23 -37 14.5 -66.5t-46.5 -46.5l-310 -155q-70 -31 -107 22z" />
<glyph unicode="&#x404;" horiz-adv-x="1208" d="M95 707q0 205 31.5 342t105 225t187 126t282.5 38q209 0 341 -28q89 -17 78 -109l-7 -53q-9 -92 -102 -87q-109 6 -311 6q-135 0 -197 -63t-77 -221q-3 -18 6 -28t26 -10h441q49 0 72 -25t23 -83t-24 -83t-71 -25h-445q-36 0 -34 -37q10 -195 72 -270t208 -75 q232 0 321 9q95 6 105 -85l5 -51q11 -93 -73 -112q-142 -33 -357 -33q-169 0 -282.5 38t-187 126.5t-105 225.5t-31.5 342z" />
<glyph unicode="&#x405;" horiz-adv-x="1191" d="M88 1049q0 220 117 305t397 85q216 0 382 -34q86 -18 77 -110l-3 -31q-8 -93 -99 -90q-144 4 -355 4q-118 0 -161.5 -25.5t-43.5 -103.5q0 -62 34 -98t114 -62l267 -92q162 -57 230.5 -160.5t68.5 -255.5q0 -223 -118 -315t-406 -92q-200 0 -398 35q-91 16 -83 107l3 42 q8 93 105 90q298 -6 375 -6q119 0 163.5 31.5t44.5 105.5q0 62 -31 97t-103 59l-283 100q-156 56 -225 159.5t-69 254.5z" />
<glyph unicode="&#x406;" horiz-adv-x="598" d="M144 96v1221q0 96 95 96h119q46 0 71 -24.5t25 -71.5v-1221q0 -46 -25 -71t-71 -25h-119q-95 0 -95 96z" />
<glyph unicode="&#x407;" horiz-adv-x="598" d="M-27 1687q0 58 39 95t101 37q61 0 99.5 -37t38.5 -95q0 -59 -38.5 -96.5t-99.5 -37.5q-62 0 -101 37.5t-39 96.5zM144 96v1221q0 96 95 96h119q46 0 71 -24.5t25 -71.5v-1221q0 -46 -25 -71t-71 -25h-119q-95 0 -95 96zM344 1687q0 58 39 95t101 37q61 0 100 -37t39 -95 q0 -59 -39 -96.5t-100 -37.5q-62 0 -101 37.5t-39 96.5z" />
<glyph unicode="&#x408;" horiz-adv-x="755" d="M56 105l5 32q8 44 30 65t63 22l28 1q125 2 125 110v982q0 47 24.5 71.5t71.5 24.5h119q46 0 71 -24.5t25 -71.5v-989q0 -168 -84 -260t-232 -92q-87 0 -174 16q-86 17 -72 113z" />
<glyph unicode="&#x409;" horiz-adv-x="1998" d="M43 123q-5 39 12 64t56 49q72 43 119 150q31 70 52 182t28 188t22 278q4 49 6 75q19 304 331 304h461q46 0 71 -24.5t25 -71.5v-393q0 -35 35 -35h159q196 0 305 -42t157.5 -139t48.5 -272q0 -133 -25.5 -220t-83 -138.5t-140.5 -72.5t-209 -21q-292 0 -463 9 q-91 6 -91 100v1059q0 35 -35 35h-138q-54 0 -79.5 -30t-31.5 -89q-31 -335 -53 -487.5t-66 -279.5q-55 -158 -143 -229.5t-227 -79.5q-89 -3 -100 90zM1226 273q0 -46 47 -48h147q122 0 159.5 42.5t37.5 176.5q0 67 -7 107t-29 68.5t-60 39t-101 10.5h-159q-35 0 -35 -34 v-362z" />
<glyph unicode="&#x40a;" horiz-adv-x="1998" d="M147 96v1221q0 96 95 96h122q46 0 71 -24.5t25 -71.5v-407q0 -35 34 -35h390q34 0 34 35v407q0 47 25 71.5t71 24.5h117q47 0 71.5 -24.5t24.5 -71.5v-408q0 -35 34 -35h167q144 0 237.5 -21.5t154.5 -74t86 -135t25 -210.5q0 -132 -25 -218.5t-81.5 -137.5t-138 -72 t-204.5 -21q-265 0 -437 7q-127 8 -127 138v484q0 35 -34 35h-390q-34 0 -34 -35v-517q0 -46 -25 -71t-71 -25h-122q-95 0 -95 96zM1227 273q0 -46 47 -48h154q117 0 153 41t36 171q0 128 -36.5 173.5t-152.5 45.5h-167q-34 0 -34 -35v-348z" />
<glyph unicode="&#x40b;" horiz-adv-x="1609" d="M37 1256v61q0 96 95 96h962q95 0 95 -96v-61q0 -96 -95 -96h-290q-35 0 -35 -35v-244q0 -39 58 -21q186 68 339 68q184 0 271 -84t87 -260v-488q0 -46 -25 -71t-71 -25h-121q-47 0 -71.5 25t-24.5 71v422q0 85 -32.5 115.5t-125.5 30.5q-130 0 -254 -46q-30 -6 -30 -37 v-485q0 -46 -24.5 -71t-71.5 -25h-122q-95 0 -95 96v1029q0 35 -35 35h-289q-95 0 -95 96z" />
<glyph unicode="&#x40c;" horiz-adv-x="1306" d="M147 96v1221q0 96 95 96h121q47 0 71.5 -24.5t24.5 -71.5v-303q0 -66 -9 -130q-8 -37 31 -37h67q36 0 65.5 7t55 24t46 36t40 53.5t34.5 66t33 83.5t32 96.5t34 114.5q25 85 109 85h120q52 0 73 -30t4 -83q-34 -110 -51.5 -163t-46 -125.5t-51.5 -106t-57 -71.5 t-74.5 -56t-93.5 -28q-18 -3 -18 -12.5t18 -12.5q57 -10 99.5 -28t79.5 -58.5t61.5 -75.5t57 -116.5t53 -142.5t61.5 -189q16 -53 -4.5 -84t-72.5 -31h-130q-83 0 -109 85q-86 277 -119 353q-52 120 -120 158q-50 28 -129 28h-66q-37 0 -31 -38q8 -54 8 -99v-391 q0 -46 -24.5 -71t-71.5 -25h-121q-95 0 -95 96zM539 1551q-42 59 27 107l275 207q70 48 115 -23l44 -62q23 -37 14.5 -66.5t-46.5 -46.5l-310 -155q-70 -31 -107 22z" />
<glyph unicode="&#x40d;" horiz-adv-x="1456" d="M147 96v1221q0 96 95 96h107q47 0 71.5 -24.5t24.5 -71.5v-733q0 -67 -2 -99q-2 -26 8.5 -28t22.5 20q9 19 27.5 53.5t21.5 40.5l439 775q37 67 114 67h137q47 0 71.5 -24.5t24.5 -71.5v-1221q0 -46 -24.5 -71t-71.5 -25h-108q-95 0 -95 96v748v27.5v34v27.5 q0 16 -4.5 23t-12 3t-13.5 -18q-16 -37 -46 -92l-441 -782q-37 -67 -114 -67h-137q-95 0 -95 96zM368.5 1713.5q-8.5 29.5 14.5 66.5l44 62q45 71 115 23l275 -208q67 -45 24 -111q-22 -34 -49.5 -42.5t-65.5 8.5l-311 155q-38 17 -46.5 46.5z" />
<glyph unicode="&#x40e;" horiz-adv-x="1212" d="M50 1304q-16 50 5 79.5t73 29.5h122q83 0 107 -82l200 -660q10 -27 34 -27h32q27 0 32 26l211 663q24 80 107 80h122q53 0 74 -29.5t5 -78.5l-311 -939q-30 -92 -59.5 -155t-71.5 -115.5t-98 -80.5t-129 -35q-84 -8 -245 14q-49 7 -66 36t-9 93q8 62 35 84t76 20 q48 -5 84.5 -1.5t59 7.5t41.5 20.5t32 37.5t30 59l7 16q7 15 1 25.5t-23 10.5h-41q-75 0 -116.5 34.5t-64.5 105.5zM274 1749q-11 48 27 71q17 11 46 16q6 3 13 1t11 -1t10 -2.5t9 -4.5t8 -5.5t7.5 -6.5t7.5 -8t7 -9t7.5 -10t8.5 -11q37 -65 174 -65q131 0 170 65 q3 3 8.5 10.5t7.5 10t7 9t7 7.5t7.5 6.5t8 5.5t9 4t9.5 2.5t11 1.5t13 0q30 -3 52 -19q32 -24 23 -67q-15 -104 -105 -169t-228 -65q-140 0 -230.5 64.5t-105.5 168.5z" />
<glyph unicode="&#x40f;" horiz-adv-x="1421" d="M147 165v1152q0 96 95 96h121q47 0 71.5 -24.5t24.5 -71.5v-1056q0 -35 35 -35h433q35 0 35 35v1056q0 96 95 96h122q47 0 71.5 -24.5t24.5 -71.5v-1152q0 -80 -42.5 -122.5t-122.5 -42.5h-239q-34 0 -36 -34l-7 -187q-5 -88 -91 -88h-39q-85 0 -90 86l-8 189 q-2 34 -35 34h-253q-80 0 -122.5 42.5t-42.5 122.5z" />
<glyph unicode="&#x410;" horiz-adv-x="1331" d="M35 108l360 1178q39 127 172 127h196q133 0 172 -127l362 -1178q15 -50 -6.5 -79t-73.5 -29h-121q-85 0 -107 82l-73 259q-8 30 -38 30h-425q-29 0 -37 -30l-74 -259q-22 -82 -106 -82h-121q-52 0 -73.5 29t-6.5 79zM498 652q-5 -18 3 -28.5t27 -10.5h276q39 0 29 39 l-110 392q-19 78 -24 102q-6 31 -32 31h-2q-27 0 -34 -31q-9 -43 -23 -102z" />
<glyph unicode="&#x411;" horiz-adv-x="1267" d="M146 125v1160q0 59 35 95.5t93 39.5q192 8 352 8q173 0 380 -10q46 -1 71 -30t20 -75l-5 -50q-5 -43 -30 -66.5t-68 -23.5h-488q-21 0 -34 -13t-13 -34v-252q0 -35 35 -35h180q294 0 407.5 -92.5t113.5 -336.5q0 -79 -11 -140.5t-31 -106.5t-54.5 -77t-74 -52.5t-97 -32 t-117 -15.5t-139.5 -4q-210 0 -399 10q-58 3 -92 39.5t-34 93.5zM458 269q0 -22 13 -34.5t35 -13.5h168q130 0 169 38.5t39 162.5q0 62 -7.5 98.5t-30.5 62t-63 35t-107 9.5h-180q-34 0 -36 -35v-323z" />
<glyph unicode="&#x412;" horiz-adv-x="1304" d="M143 146v1121q0 138 143 146h388q116 1 194 -8t140 -31t96 -63t51.5 -101.5t17.5 -148.5q0 -144 -47 -219.5t-153 -95.5q-11 -2 -15 -7.5t0.5 -11t15.5 -7.5q131 -21 187.5 -112t56.5 -256q0 -73 -11.5 -127t-38 -93.5t-63 -64.5t-93 -40t-121 -21t-152.5 -6h-457 q-69 2 -104 39.5t-35 106.5zM448 283q0 -47 48 -47l190 -1q69 0 107 5.5t65.5 24.5t37 53.5t9.5 93.5q0 127 -47 171t-179 45h-196q-35 0 -35 -34v-311zM448 871q0 -35 35 -35h193q115 0 156.5 37t41.5 146q0 100 -43.5 129.5t-171.5 29.5h-164q-47 0 -47 -47v-260z" />
<glyph unicode="&#x413;" horiz-adv-x="1091" d="M142 97v1020q0 134 83.5 218t213.5 84q366 0 533 -13q43 -3 67 -30.5t21 -71.5l-3 -45q-3 -43 -29 -67.5t-69 -24.5h-394q-60 0 -85.5 -25.5t-25.5 -86.5v-958q0 -45 -26 -71t-71 -26h-118q-45 0 -71 26t-26 71z" />
<glyph unicode="&#x414;" horiz-adv-x="1509" d="M35 143q0 35 18.5 56.5t49.5 24.5l45 1q27 3 38 27q86 202 124 399.5t59 465.5q9 135 97.5 215.5t232.5 80.5h414q80 0 122.5 -42.5t42.5 -122.5v-987q0 -35 35 -35h80q69 0 69 -83v-364q0 -43 -23 -65.5t-66 -22.5h-47q-86 0 -92 84l-14 191q-3 34 -36 34h-870 q-33 0 -36 -34l-14 -191q-6 -84 -92 -84h-49q-88 0 -88 88v364zM498 237q7 -11 28 -11h406q34 0 34 35v891q0 35 -34 35h-147q-61 0 -89 -27.5t-33 -93.5q-23 -277 -60 -461.5t-104 -338.5q-8 -18 -1 -29z" />
<glyph unicode="&#x415;" horiz-adv-x="1175" d="M131 278v857q1 127 85.5 202.5t225.5 75.5h564q44 0 67 -29.5t20 -79.5l-3 -44q-3 -45 -28.5 -69t-70.5 -24h-450q-51 0 -73.5 -24.5t-22.5 -79.5v-180q0 -35 34 -35h433q46 0 71 -25t25 -71v-35q0 -95 -96 -95h-433q-34 0 -34 -35v-238q0 -55 23 -80t73 -25h450 q93 0 99 -92l3 -42q3 -50 -20 -80t-67 -30h-564q-141 0 -225.5 75.5t-85.5 202.5z" />
<glyph unicode="&#x416;" horiz-adv-x="1921" d="M74 114q22 73 36.5 118.5t33.5 101.5t32.5 89.5t31.5 74.5t33.5 64t36.5 50.5t41.5 42.5t46.5 30.5t55 25t63 15.5q15 3 15 11t-15 12q-46 10 -83 28t-65 37t-54.5 60.5t-44 72t-41.5 98.5t-38.5 113.5t-44.5 141.5q-16 52 4.5 82.5t73.5 30.5h121q83 0 109 -84 q19 -60 30 -94t27.5 -82t27 -74t25.5 -61.5t26.5 -54t27.5 -41.5t31 -34t33 -22t38 -15t43 -4h66q15 0 22.5 8.5t5.5 23.5q-10 63 -10 135v303q0 47 25 71.5t71 24.5h105q47 0 71.5 -24.5t24.5 -71.5v-303q0 -72 -10 -135q-5 -32 29 -32h58q107 0 163.5 98.5t148.5 383.5 q26 84 110 84h120q53 0 73.5 -30.5t4.5 -82.5q-40 -132 -60.5 -192.5t-54.5 -138.5t-65.5 -112t-79 -64.5t-111.5 -43.5q-10 -2 -14 -7t0 -9.5t14 -6.5q38 -7 70 -19t59 -26.5t51 -39.5t43 -48.5t39.5 -65t35.5 -77t36 -96t36.5 -110t40.5 -130.5q16 -52 -5 -83t-73 -31 h-133q-83 0 -109 84q-96 293 -131 371q-52 117 -116 150q-38 19 -92 19h-58q-36 0 -29 -33q9 -65 9 -104v-391q0 -46 -24.5 -71t-71.5 -25h-106q-47 0 -71.5 25t-24.5 71v391q0 40 9 103q6 34 -26 34h-66q-35 0 -62 -8.5t-50 -24.5t-43.5 -45.5t-39 -67t-39.5 -93 t-42.5 -118.5t-49.5 -149q-7 -22 -11 -34q-26 -84 -110 -84h-131q-52 0 -73 31t-5 83z" />
<glyph unicode="&#x417;" horiz-adv-x="1157" d="M70 149q8 58 33.5 80t75.5 17q194 -24 362 -24q120 0 162.5 38t42.5 152q0 122 -45 165t-168 44l-178 2q-50 1 -72.5 25.5t-22.5 82.5t24 83.5t71 26.5l176 2q106 1 144.5 37t38.5 139t-41.5 138t-156.5 35q-138 0 -309 -16q-50 -5 -75 18t-32 84q-6 65 8 92t50 33 q166 27 379 27q92 0 158.5 -7t132.5 -30t106 -62.5t65 -107.5t25 -162q0 -144 -48 -218.5t-158 -96.5q-11 -2 -15 -7t0 -9.5t15 -6.5q133 -21 190.5 -113t57.5 -258q0 -109 -26 -180t-85 -113t-143 -58.5t-212 -16.5q-275 0 -456 40q-46 9 -64.5 38t-9.5 87z" />
<glyph unicode="&#x418;" horiz-adv-x="1456" d="M147 96v1221q0 96 95 96h107q47 0 71.5 -24.5t24.5 -71.5v-733q0 -67 -2 -99q-2 -26 8.5 -28t22.5 20q9 19 27.5 53.5t21.5 40.5l439 775q37 67 114 67h137q47 0 71.5 -24.5t24.5 -71.5v-1221q0 -46 -24.5 -71t-71.5 -25h-108q-95 0 -95 96v748v27.5v34v27.5 q0 16 -4.5 23t-12 3t-13.5 -18q-16 -37 -46 -92l-441 -782q-37 -67 -114 -67h-137q-95 0 -95 96z" />
<glyph unicode="&#x419;" horiz-adv-x="1456" d="M147 96v1221q0 96 95 96h107q47 0 71.5 -24.5t24.5 -71.5v-733q0 -67 -2 -99q-2 -26 8.5 -28t22.5 20q9 19 27.5 53.5t21.5 40.5l439 775q37 67 114 67h137q47 0 71.5 -24.5t24.5 -71.5v-1221q0 -46 -24.5 -71t-71.5 -25h-108q-95 0 -95 96v748v27.5v34v27.5 q0 16 -4.5 23t-12 3t-13.5 -18q-16 -37 -46 -92l-441 -782q-37 -67 -114 -67h-137q-95 0 -95 96zM404 1750q-9 38 14 60t65 22h43q36 0 52 -16.5t31 -57.5q22 -93 130 -93q105 0 127 93q15 41 30.5 57.5t51.5 16.5h41q42 0 66 -22t15 -60q-18 -103 -106.5 -168.5 t-224.5 -65.5q-137 0 -227 65.5t-108 168.5z" />
<glyph unicode="&#x41a;" horiz-adv-x="1306" d="M147 96v1221q0 96 95 96h121q47 0 71.5 -24.5t24.5 -71.5v-303q0 -66 -9 -130q-8 -37 31 -37h67q36 0 65.5 7t55 24t46 36t40 53.5t34.5 66t33 83.5t32 96.5t34 114.5q25 85 109 85h120q52 0 73 -30t4 -83q-34 -110 -51.5 -163t-46 -125.5t-51.5 -106t-57 -71.5 t-74.5 -56t-93.5 -28q-18 -3 -18 -12.5t18 -12.5q57 -10 99.5 -28t79.5 -58.5t61.5 -75.5t57 -116.5t53 -142.5t61.5 -189q16 -53 -4.5 -84t-72.5 -31h-130q-83 0 -109 85q-86 277 -119 353q-52 120 -120 158q-50 28 -129 28h-66q-37 0 -31 -38q8 -54 8 -99v-391 q0 -46 -24.5 -71t-71.5 -25h-121q-95 0 -95 96z" />
<glyph unicode="&#x41b;" horiz-adv-x="1388" d="M18 146q-5 43 13.5 68t61.5 44q82 36 117 127q41 109 64.5 264.5t46.5 456.5q12 152 95.5 229.5t236.5 77.5h424q80 0 122.5 -42.5t42.5 -122.5v-1152q0 -96 -95 -96h-122q-47 0 -71.5 25t-24.5 71v1056q0 35 -35 35h-145q-118 0 -128 -119q-27 -315 -51 -481t-70 -286 q-110 -303 -381 -312q-87 -3 -95 92z" />
<glyph unicode="&#x41c;" horiz-adv-x="1865" d="M120 98l43 1153q3 80 46 121t122 41h204q150 0 181 -145l165 -661q12 -49 31 -167q4 -31 20 -31q15 0 19 31q18 112 32 169l161 659q30 145 181 145h207q161 0 169 -162l45 -1153q3 -98 -93 -98h-103q-93 0 -98 94l-41 1040q-3 35 -19 35q-18 0 -25 -31l-202 -800 q-33 -145 -182 -145h-107q-148 0 -181 145l-201 800q-7 31 -24 31t-20 -35l-36 -1040q-3 -94 -96 -94h-103q-47 0 -71.5 25.5t-23.5 72.5z" />
<glyph unicode="&#x41d;" horiz-adv-x="1409" d="M144 96v1221q0 96 95 96h121q46 0 71 -24.5t25 -71.5v-410q0 -34 34 -34h430q34 0 34 34v410q0 47 25 71.5t71 24.5h121q95 0 95 -96v-1221q0 -96 -95 -96h-121q-46 0 -71 25t-25 71v501q0 34 -34 34h-430q-34 0 -34 -34v-501q0 -46 -25 -71t-71 -25h-121q-95 0 -95 96z " />
<glyph unicode="&#x41e;" horiz-adv-x="1400" d="M96 707q0 172 20.5 294.5t63 208.5t115.5 136t170.5 72.5t234.5 22.5q172 0 284 -34.5t186 -120.5t105 -225t31 -354t-31 -354t-105 -225t-186 -120.5t-284 -34.5q-137 0 -234.5 22.5t-170.5 72.5t-115.5 136t-63 208.5t-20.5 294.5zM424 707q0 -191 25 -293t83.5 -145.5 t167.5 -43.5t167.5 43.5t84 145.5t25.5 293q0 190 -25.5 292.5t-84 145.5t-167.5 43t-167.5 -43.5t-83.5 -145t-25 -292.5z" />
<glyph unicode="&#x41f;" horiz-adv-x="1413" d="M147 96v1152q0 80 42.5 122.5t122.5 42.5h789q80 0 122.5 -42.5t42.5 -122.5v-1152q0 -96 -95 -96h-121q-46 0 -71 25t-25 71v1056q0 35 -34 35h-426q-35 0 -35 -35v-1056q0 -46 -24.5 -71t-71.5 -25h-121q-95 0 -95 96z" />
<glyph unicode="&#x420;" horiz-adv-x="1269" d="M143 96v1190q0 129 120 135q144 11 417 11q124 0 209.5 -13.5t149 -44.5t99.5 -85.5t53 -131t17 -187.5q0 -138 -25 -226t-85 -141t-149 -74t-228 -21q-107 0 -229 12q-37 3 -37 -33v-391q0 -46 -24.5 -71t-71.5 -25h-121q-95 0 -95 96zM455 783q0 -34 35 -34h183 q130 1 176 45.5t46 175.5t-46.5 176t-175.5 45q-29 0 -86 -0.5t-85 -0.5q-26 0 -36.5 -11t-10.5 -36v-360z" />
<glyph unicode="&#x421;" horiz-adv-x="1198" d="M95 707q0 205 31 342t103 225t183.5 126t277.5 38q198 0 337 -27q88 -20 77 -110l-5 -52q-11 -92 -104 -87q-107 6 -305 6q-63 0 -106.5 -14t-75.5 -45t-50 -86t-26 -130.5t-8 -185.5q0 -182 24.5 -280t80.5 -140t161 -42q230 0 333 10q95 6 105 -86l6 -49 q11 -90 -75 -110q-143 -35 -369 -35q-166 0 -277.5 38t-183.5 126.5t-103 225.5t-31 342z" />
<glyph unicode="&#x422;" horiz-adv-x="1230" d="M37 1256v61q0 96 95 96h967q95 0 95 -96v-61q0 -96 -95 -96h-293q-34 0 -34 -35v-1029q0 -46 -25 -71t-71 -25h-122q-46 0 -71 25t-25 71v1029q0 35 -35 35h-291q-95 0 -95 96z" />
<glyph unicode="&#x423;" horiz-adv-x="1212" d="M50 1304q-16 50 5 79.5t73 29.5h122q83 0 107 -82l200 -660q10 -27 34 -27h32q27 0 32 26l211 663q24 80 107 80h122q53 0 74 -29.5t5 -78.5l-311 -939q-30 -92 -59.5 -155t-71.5 -115.5t-98 -80.5t-129 -35q-84 -8 -245 14q-49 7 -66 36t-9 93q8 62 35 84t76 20 q48 -5 84.5 -1.5t59 7.5t41.5 20.5t32 37.5t30 59l7 16q7 15 1 25.5t-23 10.5h-41q-75 0 -116.5 34.5t-64.5 105.5z" />
<glyph unicode="&#x424;" horiz-adv-x="1726" d="M65 722q0 212 60.5 338t193 189t360.5 78q28 3 28 29v63q2 94 96 94h120q94 0 96 -93l1 -64q0 -26 30 -29q337 -22 474 -157t138 -448q-1 -304 -138 -435.5t-475 -152.5q-29 -3 -29 -30v-62q-2 -94 -95 -94h-122q-94 0 -96 94v62q0 27 -28 30q-338 21 -476 153t-138 435z M381 722q0 -185 64.5 -259.5t244.5 -89.5q31 -6 31 25v665q0 31 -29 25q-181 -16 -246 -94t-65 -272zM1006 398q0 -31 31 -25q178 16 243 91t66 258q0 98 -14.5 161.5t-50.5 108t-94.5 66.5t-149.5 30q-31 5 -31 -26v-664z" />
<glyph unicode="&#x425;" horiz-adv-x="1323" d="M73 33q-20 33 6 85l297 584q10 23 0 48l-272 547q-25 52 -4.5 84t78.5 32h119q80 0 114 -75l218 -463q11 -23 33 -23q20 0 31 24l218 463q33 74 115 74h120q58 0 77.5 -32.5t-5.5 -84.5l-272 -546q-10 -25 1 -48l297 -585q26 -53 6 -85t-78 -32h-121q-81 0 -116 74 l-243 509q-12 23 -30 23q-22 0 -32 -22l-243 -511q-35 -73 -116 -73h-120q-58 0 -78 33z" />
<glyph unicode="&#x426;" horiz-adv-x="1458" d="M147 165v1152q0 96 95 96h121q47 0 71.5 -24.5t24.5 -71.5v-1056q0 -35 35 -35h402q34 0 34 35v1056q0 47 25 71.5t71 24.5h122q46 0 71 -24.5t25 -71.5v-1056q0 -35 34 -35h58q74 0 74 -96v-350q0 -89 -89 -89h-45q-87 0 -93 86l-15 189q-3 34 -35 34h-821 q-80 0 -122.5 42.5t-42.5 122.5z" />
<glyph unicode="&#x427;" horiz-adv-x="1345" d="M98 822v495q0 47 25 71.5t71 24.5h120q46 0 71 -24.5t25 -71.5v-428q-1 -80 34 -112.5t124 -32.5q142 0 290 54q28 9 28 40v479q0 47 25 71.5t71 24.5h121q95 0 95 -96v-1221q0 -96 -95 -96h-121q-46 0 -71 25t-25 71v446q0 41 -40 27q-100 -44 -205 -67t-187 -23 q-183 0 -269.5 83.5t-86.5 259.5z" />
<glyph unicode="&#x428;" horiz-adv-x="1988" d="M147 165v1152q0 96 95 96h115q95 0 95 -96v-1056q0 -35 35 -35h321q34 0 34 35v1056q0 47 25 71.5t71 24.5h112q46 0 71 -24.5t25 -71.5v-1056q0 -35 35 -35h320q35 0 35 35v1056q0 47 25 71.5t71 24.5h114q46 0 71 -24.5t25 -71.5v-1152q0 -80 -43 -122.5t-123 -42.5 h-1364q-80 0 -122.5 42.5t-42.5 122.5z" />
<glyph unicode="&#x429;" horiz-adv-x="2045" d="M147 165v1152q0 96 95 96h115q95 0 95 -96v-1056q0 -35 35 -35h315q35 0 35 35v1056q0 47 24.5 71.5t71.5 24.5h113q95 0 95 -96v-1056q0 -35 35 -35h317q34 0 34 35v1056q0 47 24.5 71.5t71.5 24.5h113q46 0 71 -24.5t25 -71.5v-1056q0 -35 34 -35h59q73 0 73 -96v-350 q0 -89 -90 -89h-45q-87 0 -93 86l-14 189q-3 34 -36 34h-1408q-80 0 -122.5 42.5t-42.5 122.5z" />
<glyph unicode="&#x42a;" horiz-adv-x="1562" d="M35 1256v61q0 96 95 96h557q47 0 71.5 -24.5t24.5 -71.5v-393q0 -35 35 -35h165q147 0 242.5 -22t157 -76t87 -140t25.5 -218t-25.5 -218.5t-83 -137.5t-140.5 -72t-209 -21q-268 0 -440 7q-128 8 -128 138v996q0 35 -35 35h-304q-95 0 -95 96zM783 273q0 -46 47 -48h153 q123 0 160.5 42t37.5 175q0 68 -7 108t-29 69t-60 39.5t-102 10.5h-165q-35 0 -35 -34v-362z" />
<glyph unicode="&#x42b;" horiz-adv-x="1837" d="M147 129v1188q0 96 95 96h122q46 0 71 -24.5t25 -71.5v-389q0 -39 38 -39h166q148 0 243.5 -22t157 -76t87 -140t25.5 -218t-25.5 -218.5t-83 -137.5t-141 -72t-209.5 -21q-277 0 -444 8q-127 6 -127 137zM460 277q0 -50 51 -52h153q124 0 161.5 42t37.5 175q0 68 -7 108 t-29 69t-60.5 39.5t-102.5 10.5h-166q-38 0 -38 -38v-354zM1378 96v1221q0 96 95 96h122q47 0 71.5 -24.5t24.5 -71.5v-1221q0 -46 -24.5 -71t-71.5 -25h-122q-95 0 -95 96z" />
<glyph unicode="&#x42c;" horiz-adv-x="1251" d="M147 129v1188q0 96 95 96h121q47 0 71.5 -24.5t24.5 -71.5v-393q0 -35 35 -35h173q148 0 244 -22t158 -76t88 -140t26 -218t-25.5 -218.5t-84 -137.5t-142 -72t-210.5 -21q-279 0 -447 8q-127 6 -127 137zM459 273q0 -46 47 -48h161q126 0 164 42t38 175q0 68 -7.5 108 t-29.5 68.5t-61 39.5t-104 11h-173q-35 0 -35 -34v-362z" />
<glyph unicode="&#x42d;" horiz-adv-x="1208" d="M77 120l6 51q10 91 104 85q89 -9 321 -9q146 0 208.5 75t71.5 270q3 37 -34 37h-445q-95 0 -95 96v25q0 95 95 95h441q17 0 26 10t6 28q-15 158 -77 221t-197 63q-202 0 -311 -6q-91 -5 -102 87l-7 52q-9 90 54 106q142 32 365 32q169 0 282.5 -38t187 -126t105 -225 t31.5 -342t-31.5 -342t-105 -225.5t-187 -126.5t-282.5 -38q-214 0 -356 33q-85 19 -74 112z" />
<glyph unicode="&#x42e;" horiz-adv-x="1988" d="M148 96v1221q0 47 25 71.5t71 24.5h121q47 0 71.5 -24.5t24.5 -71.5v-438q0 -34 35 -34h194q33 0 36 39q12 160 48 266.5t106 171.5t167 92t240 27q137 0 234.5 -22.5t170.5 -72.5t116 -136t63.5 -208.5t20.5 -294.5t-20.5 -294.5t-63.5 -208.5t-116 -136t-170.5 -72.5 t-234.5 -22.5q-119 0 -205.5 19t-153 61t-109 114t-66 173.5t-30.5 243.5q-2 35 -35 35h-192q-35 0 -35 -35v-488q0 -46 -24.5 -71t-71.5 -25h-121q-46 0 -71 25t-25 71zM1026 707q0 -191 23.5 -293t78.5 -145.5t159 -43.5q108 0 166 43.5t83 145.5t26 293q-1 191 -26 293 t-83 145t-166 43q-104 0 -159 -43.5t-78.5 -145t-23.5 -292.5z" />
<glyph unicode="&#x42f;" horiz-adv-x="1300" d="M87 106l87 327q35 147 173 198q17 6 17 16t-19 14q-125 30 -178 116t-52 237q0 229 118 323.5t391 94.5q261 0 404 -9q63 -3 95 -38.5t32 -98.5v-1190q0 -96 -95 -96h-121q-47 0 -71.5 25t-24.5 71v412q0 34 -35 34h-170q-63 0 -97 -27t-50 -93l-84 -338 q-19 -84 -105 -84h-133q-51 0 -73 28.5t-9 77.5zM428 994q0 -117 43.5 -164t158.5 -47h178q35 0 35 35v325q0 47 -47 47q-28 0 -83 0.5t-83 0.5q-117 0 -159 -40t-43 -157z" />
<glyph unicode="&#x430;" horiz-adv-x="1161" d="M74 266v102q0 121 82 189t227 68h336q24 0 24 25v34q-1 71 -34.5 94.5t-130.5 23.5q-223 0 -338 -6q-91 -5 -107 94q-16 106 89 121q192 27 426 27q101 0 172.5 -18t124 -60t77.5 -114t25 -177v-569q0 -46 -26.5 -73t-73.5 -27h-59q-37 0 -58 13t-32 48l-6 13 q-10 30 -30 11q-129 -109 -359 -109q-145 0 -237 76t-92 214zM373 308q0 -54 28.5 -79.5t89.5 -25.5q45 0 72 1.5t73 13t85 34.5q23 11 23 40v123q0 28 -28 28h-245q-53 -1 -75.5 -26t-22.5 -71v-38z" />
<glyph unicode="&#x431;" horiz-adv-x="1214" d="M109 621q0 131 8 226.5t31.5 189t64 158t107.5 116.5t161 82q79 25 225.5 42.5t221.5 42.5q96 28 118 -63l12 -49q21 -91 -60 -120q-81 -32 -217 -45.5t-198 -30.5q-168 -47 -218 -207q-16 -38 -27 -104q-4 -25 7.5 -30.5t28.5 11.5q58 68 134 102.5t195 34.5 q234 0 329.5 -111t95.5 -368q0 -132 -24.5 -226t-81.5 -162.5t-154.5 -101.5t-240.5 -33q-104 0 -184 18t-134.5 45.5t-92.5 77.5t-59 97t-32 122t-13.5 134.5t-2.5 151.5zM421 497q0 -174 41.5 -235t154.5 -61q112 0 153 60.5t41 234.5q0 162 -38 217t-148 55 q-65 0 -105 -14t-62 -48.5t-29.5 -82t-7.5 -126.5z" />
<glyph unicode="&#x432;" horiz-adv-x="1167" d="M128 113v779q0 57 29.5 89.5t86.5 33.5q154 6 366 6q251 0 346.5 -55.5t95.5 -212.5q0 -101 -43 -153.5t-142 -68.5q-11 -2 -15.5 -6.5t0 -8.5t15.5 -6q120 -17 171.5 -80t51.5 -180q0 -153 -96.5 -209.5t-326.5 -56.5q-246 0 -423 6q-116 6 -116 123zM412 235 q0 -41 40 -41h164q98 0 135.5 24.5t37.5 94.5q0 68 -39 94t-139 26h-165q-34 0 -34 -35v-163zM412 643q0 -35 34 -35h165q91 0 125.5 23t34.5 85q0 58 -38 78.5t-138 20.5h-143q-40 1 -40 -39v-133z" />
<glyph unicode="&#x433;" horiz-adv-x="983" d="M123 96v682q0 124 64 184t195 60q331 0 481 -14q44 -4 66.5 -31.5t19.5 -72.5l-2 -27q-5 -93 -98 -93h-333q-50 0 -71.5 -21t-21.5 -70v-597q0 -46 -24.5 -71t-71.5 -25h-108q-47 0 -71.5 25t-24.5 71z" />
<glyph unicode="&#x434;" horiz-adv-x="1288" d="M43 129q0 75 71 86h28q26 3 36 28q85 225 117 521q13 124 83.5 185t204.5 61h377q120 0 120 -120v-639q0 -35 35 -35h55q69 0 69 -87v-331q0 -42 -22.5 -64.5t-64.5 -22.5h-28q-85 0 -91 84l-12 171q-1 34 -36 34h-688q-35 0 -36 -34l-12 -171q-6 -84 -91 -84h-28 q-42 0 -64.5 22.5t-22.5 64.5v331zM452.5 227q6.5 -11 26.5 -11h282q34 0 34 35v514q0 39 -39 39h-92q-93 0 -103 -96q-35 -287 -107 -451q-8 -19 -1.5 -30z" />
<glyph unicode="&#x435;" horiz-adv-x="1146" d="M81 504q0 200 53.5 317t163.5 167t297 50q252 0 365 -87t114 -265q1 -142 -63 -212t-206 -70h-363q-38 0 -32 -34q14 -90 67.5 -121.5t165.5 -31.5q98 0 286 16q95 7 110 -87q16 -98 -68 -124q-157 -47 -364 -47q-285 0 -405.5 123.5t-120.5 405.5zM400 622 q-1 -19 6.5 -27.5t25.5 -8.5h264q51 0 67 24t16 81q0 70 -38 97.5t-135 28.5q-118 1 -159.5 -39t-46.5 -156z" />
<glyph unicode="&#x436;" horiz-adv-x="1683" d="M80 116q33 100 54.5 156t47.5 106t55 74.5t66 41t92 26.5q18 3 18 8t-18 9q-42 8 -72 19t-56 32t-43.5 43.5t-37.5 65.5t-35 85t-39 113q-17 54 3 84.5t72 30.5h102q82 0 111 -84q61 -176 102 -237.5t114 -62.5h70q36 0 30 38q-5 45 -5 84v167q0 95 96 95h74q95 0 95 -95 v-167q0 -37 -5 -84q-6 -38 29 -38h66q73 1 114.5 63t101.5 237q29 84 111 84h103q52 0 72.5 -30.5t3.5 -84.5q-24 -71 -39 -113t-35 -85t-37.5 -65.5t-43 -43.5t-55.5 -32t-71 -19q-13 -2 -17.5 -6t-0.5 -7.5t16 -5.5q54 -9 91 -25.5t66 -41.5t55 -74t48.5 -106t54.5 -155 q17 -54 -4 -85t-73 -31h-109q-84 0 -112 83q-76 211 -115.5 274t-111.5 65h-74q-38 0 -33 -36q4 -36 4 -52v-238q0 -96 -95 -96h-75q-95 0 -95 96v238q0 7 0.5 15.5t1.5 19t1 16.5q6 37 -31 37h-77q-71 -2 -110.5 -64.5t-117.5 -274.5q-28 -83 -112 -83h-109q-53 0 -73.5 31 t-3.5 85z" />
<glyph unicode="&#x437;" horiz-adv-x="1058" d="M67 109l2 24q11 93 105 85q201 -13 316 -13q108 0 143.5 19.5t35.5 86.5q0 61 -36.5 81t-141.5 22l-196 2q-95 2 -95 92v13q2 87 95 89l194 1q91 2 122 22t31 79q0 56 -36 72.5t-147 16.5q-131 0 -254 -11q-95 -8 -104 86l-3 25q-5 45 22.5 75t84.5 40q101 18 239 18 q114 0 189 -6t137.5 -23t97 -48t53 -79.5t18.5 -118.5q0 -109 -40.5 -161.5t-140.5 -68.5q-11 -2 -15.5 -6t0 -8t15.5 -6q116 -16 168 -78t52 -180q0 -59 -12 -102.5t-39.5 -74t-63 -50t-91 -30t-116 -14.5t-144.5 -4q-200 0 -363 24q-91 17 -82 109z" />
<glyph unicode="&#x438;" horiz-adv-x="1241" d="M129 96v819q0 95 96 95h77q96 0 96 -95v-434q0 -52 -1 -77t7.5 -28t21.5 16q15 22 48 72l339 484q41 62 116 62h87q95 0 95 -95v-819q0 -95 -95 -97h-79q-46 -1 -71 23.5t-25 71.5l1 426q0 56 1 83q1 25 -8.5 28t-22.5 -19q-19 -31 -49 -77l-334 -473q-42 -62 -117 -62 h-87q-47 0 -71.5 25t-24.5 71z" />
<glyph unicode="&#x439;" horiz-adv-x="1241" d="M129 96v819q0 95 96 95h77q96 0 96 -95v-434q0 -52 -1 -77t7.5 -28t21.5 16q15 22 48 72l339 484q41 62 116 62h87q95 0 95 -95v-819q0 -95 -95 -97h-79q-46 -1 -71 23.5t-25 71.5l1 426q0 56 1 83q1 25 -8.5 28t-22.5 -19q-19 -31 -49 -77l-334 -473q-42 -62 -117 -62 h-87q-47 0 -71.5 25t-24.5 71zM287 1376q-9 38 14 60.5t65 22.5h43q36 0 52 -17t31 -58q22 -93 130 -93q104 0 126 93q15 41 31 58t52 17h41q42 0 66 -22.5t15 -60.5q-18 -103 -106.5 -168.5t-224.5 -65.5q-137 0 -227 65.5t-108 168.5z" />
<glyph unicode="&#x43a;" horiz-adv-x="1155" d="M129 96v819q0 95 96 95h109q96 0 96 -95v-164q0 -43 -6 -85q-6 -38 28 -38h62q39 0 68 11t50.5 29.5t41.5 58t35.5 82t38.5 115.5q23 86 108 86h108q32 0 49.5 -6t28.5 -24t6 -54.5t-25 -94.5q-54 -155 -105 -213.5t-160 -78.5q-12 -2 -16.5 -7.5t0 -11t16.5 -6.5 q55 -9 92 -24.5t67 -39.5t55.5 -72t48 -106t54.5 -156q16 -54 -4.5 -85t-72.5 -31h-119q-82 0 -110 86t-46 133.5t-38.5 91.5t-41.5 64t-47 31.5t-62 12.5h-76q-36 0 -31 -36q0 -4 1.5 -22.5t1.5 -27.5v-237q0 -46 -25 -71t-71 -25h-109q-47 0 -71.5 25t-24.5 71z" />
<glyph unicode="&#x43b;" horiz-adv-x="1210" d="M37 123q-11 83 69 106q37 11 57 32.5t34 61.5q39 122 65 431q12 129 80.5 192.5t200.5 63.5h405q64 0 98.5 -34t34.5 -99v-781q0 -46 -24.5 -71t-71.5 -25h-110q-47 0 -71.5 25t-24.5 71v667q0 35 -35 35h-97q-52 0 -75.5 -22t-30.5 -78q-41 -339 -73 -458 q-56 -252 -327 -257q-83 1 -97 93z" />
<glyph unicode="&#x43c;" horiz-adv-x="1603" d="M115 98l23 758q1 76 42 115.5t117 39.5l174 -1q139 0 173 -135l117 -406q12 -41 22 -118q3 -31 17 -31q13 0 17 31q18 105 22 118l115 405q33 136 173 136h178q76 0 117 -39.5t43 -115.5l25 -757q1 -47 -23.5 -72.5t-71.5 -25.5h-84q-94 0 -97 94l-25 660q-1 35 -16 35 q-13 0 -22 -30l-153 -519q-27 -110 -134 -110h-130q-108 0 -135 110l-150 519q-8 30 -22 30q-16 0 -17 -35l-22 -660q-3 -94 -95 -94h-83q-47 0 -71.5 25.5t-23.5 72.5z" />
<glyph unicode="&#x43d;" horiz-adv-x="1236" d="M129 96v819q0 95 96 95h106q96 0 96 -95v-242q0 -35 35 -35h313q35 0 35 35v242q0 95 96 95h105q96 0 96 -95v-819q0 -46 -24.5 -71t-71.5 -25h-105q-46 0 -71 25t-25 71v297q0 35 -35 35h-313q-35 0 -35 -35v-297q0 -46 -24.5 -71t-71.5 -25h-106q-47 0 -71.5 25 t-24.5 71z" />
<glyph unicode="&#x43e;" d="M84 504q0 292 118 413t402 121q283 0 400.5 -121t117.5 -413q0 -290 -117 -410t-401 -120t-402 120t-118 410zM401 504q0 -181 41.5 -242.5t161.5 -61.5q119 0 160.5 62t41.5 242q0 183 -41.5 245.5t-160.5 62.5q-120 0 -161.5 -62t-41.5 -246z" />
<glyph unicode="&#x43f;" horiz-adv-x="1218" d="M129 96v758q0 76 40.5 116.5t116.5 40.5h647q77 0 117 -40.5t40 -116.5v-758q0 -96 -95 -96h-103q-46 0 -71 25t-25 71v664q0 35 -35 35h-303q-35 0 -35 -35v-664q0 -96 -95 -96h-103q-47 0 -71.5 25t-24.5 71z" />
<glyph unicode="&#x440;" d="M123 -305v1187q0 80 75 103q73 22 203 37.5t225 15.5q119 0 207.5 -26.5t143.5 -71.5t88.5 -114t46 -144.5t12.5 -172.5q0 -154 -26.5 -259.5t-81 -165t-126.5 -84.5t-174 -25q-156 0 -268 40q-20 8 -28.5 2t-4.5 -29q14 -77 13 -144l-1 -149q-1 -99 -100 -99h-104 q-100 0 -100 99zM425 274q0 -44 30 -48q82 -17 174 -17q54 0 86 10.5t55.5 42.5t33 90t9.5 153q0 176 -40 240t-142 68q-84 3 -163 -12q-42 -8 -42 -47z" />
<glyph unicode="&#x441;" horiz-adv-x="1034" d="M82 507q0 292 115 411.5t394 119.5q154 0 286 -33q87 -23 71 -121q-18 -96 -109 -96q-16 0 -90 1.5t-107 1.5q-138 0 -190.5 -59.5t-52.5 -224.5q0 -167 52.5 -226.5t190.5 -59.5q128 0 212 7q96 8 112 -87q18 -103 -70 -128q-140 -38 -308 -38q-278 0 -392 119.5 t-114 412.5z" />
<glyph unicode="&#x442;" horiz-adv-x="1050" d="M40 873v42q0 95 96 95h779q96 0 96 -95v-42q0 -47 -24.5 -71.5t-71.5 -24.5h-204q-34 0 -34 -35v-646q0 -46 -24.5 -71t-71.5 -25h-110q-95 0 -95 96v646q0 35 -35 35h-205q-46 0 -71 24.5t-25 71.5z" />
<glyph unicode="&#x443;" horiz-adv-x="1157" d="M55 901q-17 50 4.5 79.5t74.5 29.5h121q84 0 105 -82l169 -572q7 -29 27 -119q7 -32 19 -32t20 29q9 38 32 122l166 572q21 82 106 82h122q53 0 74 -29.5t4 -79.5l-320 -915q-86 -255 -276 -351q-120 -69 -321 -54q-92 8 -80 115q5 50 28.5 74t74.5 26q116 3 173 39 q62 40 105 133q9 14 3.5 23t-23.5 9h-17q-36 0 -62.5 19.5t-36.5 53.5z" />
<glyph unicode="&#x444;" horiz-adv-x="1531" d="M82 504q0 258 120 381t400 146q28 3 28 29v278q0 46 25 71t71 25h79q47 0 71.5 -25t24.5 -71v-278q0 -25 31 -30q278 -23 397 -145.5t119 -380.5q0 -256 -120 -377.5t-400 -144.5q-27 -3 -27 -31v-245q0 -46 -24.5 -71t-71.5 -25h-79q-46 0 -71 25t-25 71v247 q0 26 -28 29q-280 23 -400 144.5t-120 377.5zM371 504q0 -150 52 -218t186 -85q15 -3 24 4.5t9 22.5v557q0 15 -8 23t-22 5q-136 -18 -188.5 -87t-52.5 -222zM889 228q0 -33 32 -27q134 18 186.5 86t52.5 217q0 151 -52.5 220t-186.5 87q-15 4 -23.5 -3.5t-8.5 -22.5v-557z " />
<glyph unicode="&#x445;" horiz-adv-x="1159" d="M70 35.5q-20 35.5 11 88.5l217 363q19 31 -1 64l-194 339q-31 54 -11 88.5t81 34.5h107q86 0 121 -74l149 -287q12 -21 30 -21q19 0 30 20l149 288q35 74 120 74h107q61 0 81 -35t-10 -88l-197 -339q-19 -32 1 -63l217 -365q31 -53 10.5 -88t-81.5 -35h-108 q-83 0 -118 72l-172 321q-11 20 -29 20q-19 0 -29 -20l-170 -320q-37 -73 -121 -73h-108q-62 0 -82 35.5z" />
<glyph unicode="&#x446;" horiz-adv-x="1280" d="M129 151v764q0 95 96 95h106q96 0 96 -95v-664q0 -35 35 -35h282q35 0 35 35v664q0 95 96 95h107q96 0 96 -95l-1 -664q0 -35 34 -35h53q67 0 67 -89v-326q0 -49 -25.5 -69.5t-76.5 -20.5t-76.5 20.5t-29.5 64.5l-14 171q-1 33 -35 33h-694q-74 0 -112.5 39t-38.5 112z " />
<glyph unicode="&#x447;" horiz-adv-x="1161" d="M88 549v366q0 95 96 95h108q96 0 96 -95v-271q0 -54 23 -76t80 -22q109 0 210 35q28 8 28 40v294q0 95 96 95h111q95 0 95 -95l-2 -819q0 -46 -24.5 -71t-71.5 -25h-108q-47 0 -71.5 25t-24.5 71v239q0 39 -39 28q-167 -46 -302 -46q-153 0 -226.5 57t-73.5 175z" />
<glyph unicode="&#x448;" horiz-adv-x="1712" d="M129 151v764q0 95 96 95h100q96 0 96 -95v-664q0 -35 34 -35h233q34 0 34 35v664q0 95 96 95h76q95 0 95 -95v-664q0 -35 35 -35h234q35 0 35 35v664q0 95 95 95h100q96 0 96 -95v-764q0 -73 -39 -112t-112 -39h-1153q-74 0 -112.5 39t-38.5 112z" />
<glyph unicode="&#x449;" horiz-adv-x="1785" d="M129 151v764q0 95 96 95h100q96 0 96 -95v-664q0 -35 34 -35h232q35 0 35 35v664q0 95 95 95h76q96 0 96 -95v-664q0 -35 34 -35h233q35 0 35 35v664q0 95 96 95h100q95 0 95 -95v-664q0 -35 35 -35h50q68 0 68 -89v-326q0 -49 -25.5 -69.5t-75.5 -20.5q-52 0 -77 20 t-29 65l-14 171q-2 33 -36 33h-1198q-74 0 -112.5 39t-38.5 112z" />
<glyph unicode="&#x44a;" horiz-adv-x="1339" d="M39 881v34q0 95 95 95h438q96 0 96 -95v-220q0 -35 35 -35h113q264 0 362.5 -71t98.5 -265q0 -191 -94.5 -263.5t-315.5 -72.5q-239 0 -367 5q-60 2 -91.5 36t-31.5 94v628q0 34 -35 34h-208q-95 0 -95 96zM668 241q0 -41 41 -41h107q92 0 124.5 26.5t32.5 108.5 q0 80 -31.5 107.5t-125.5 27.5h-113q-35 0 -35 -35v-194z" />
<glyph unicode="&#x44b;" horiz-adv-x="1595" d="M129 123v792q0 95 96 95h100q96 0 96 -95v-220q0 -35 34 -35h117q135 0 221 -16t141 -55.5t77.5 -102.5t22.5 -162q0 -98 -23 -163t-75 -103.5t-126.5 -54t-185.5 -15.5q-216 0 -372 6q-60 2 -91.5 35.5t-31.5 93.5zM421 241q0 -41 40 -41h111q92 0 124.5 26.5 t32.5 108.5q0 80 -31.5 107.5t-125.5 27.5h-117q-34 0 -34 -35v-194zM1163 96v819q0 95 96 95h112q96 0 96 -95v-819q0 -46 -24.5 -71t-71.5 -25h-112q-47 0 -71.5 25t-24.5 71z" />
<glyph unicode="&#x44c;" horiz-adv-x="1099" d="M129 123v792q0 95 96 95h99q96 0 96 -95v-220q0 -35 34 -35h120q266 0 365 -71t99 -265q0 -98 -23.5 -163t-75.5 -103.5t-126.5 -54t-186.5 -15.5q-216 0 -374 6q-60 2 -91.5 35.5t-31.5 93.5zM420 241q0 -41 41 -41h113q94 0 127 26.5t33 108.5q0 80 -32 107.5 t-128 27.5h-120q-34 0 -34 -35v-194z" />
<glyph unicode="&#x44d;" horiz-adv-x="1093" d="M76 122q8 53 31.5 77t74.5 23q112 -7 282 -7q122 0 172 35.5t62 139.5q1 13 -6 21t-20 8h-383q-95 0 -95 93q0 95 95 95h380q13 0 19.5 9t2.5 21q-14 89 -64.5 123t-162.5 33q-13 0 -274 -3q-49 0 -71.5 23t-30.5 75q-15 99 71 117q116 26 305 26q153 0 255 -27 t168 -90.5t94 -163t28 -250.5q0 -290 -122 -407.5t-423 -117.5q-188 0 -315 29q-85 19 -73 118z" />
<glyph unicode="&#x44e;" horiz-adv-x="1701" d="M129 96v819q0 95 96 95h110q96 0 96 -95v-256q0 -35 34 -35h131q34 0 35 34q12 112 43.5 185t90.5 116.5t140 61t201 17.5q145 0 237.5 -23.5t156 -84.5t89.5 -163t26 -263q0 -157 -26 -257t-89 -160t-156 -83.5t-238 -23.5q-123 0 -205.5 18.5t-141.5 64.5t-89.5 122 t-40.5 193q-2 34 -35 34h-129q-34 0 -34 -35v-281q0 -46 -24.5 -71t-71.5 -25h-110q-47 0 -71.5 25t-24.5 71zM906 508q0 -175 39 -233.5t157 -58.5q119 0 159.5 58.5t41.5 233.5q-1 176 -41 234t-160 58q-61 0 -97.5 -12t-59.5 -46.5t-31 -88.5t-8 -145z" />
<glyph unicode="&#x44f;" horiz-adv-x="1155" d="M81 106l56 207q25 83 152 112q19 3 19.5 10t-19.5 13q-97 29 -138.5 96t-41.5 170q0 119 38 186t131.5 98.5t262.5 31.5q279 0 367 -6q59 -3 89.5 -37t30.5 -94v-797q0 -46 -25 -71t-71 -25h-102q-46 0 -71 25t-25 71v213q0 35 -35 35h-151q-54 0 -82 -17t-36 -56 l-49 -188q-20 -83 -105 -83h-114q-51 0 -72.5 28.5t-8.5 77.5zM403 683q0 -85 27 -113t117 -28h152q35 0 35 35v190q0 41 -41 41h-146q-91 0 -117.5 -24.5t-26.5 -100.5z" />
<glyph unicode="&#x451;" horiz-adv-x="1146" d="M81 504q0 200 53.5 317t163.5 167t297 50q252 0 365 -87t114 -265q1 -142 -63 -212t-206 -70h-363q-38 0 -32 -34q14 -90 67.5 -121.5t165.5 -31.5q98 0 286 16q95 7 110 -87q16 -98 -68 -124q-157 -47 -364 -47q-285 0 -405.5 123.5t-120.5 405.5zM273 1313 q0 58 39 95.5t101 37.5q61 0 100 -37.5t39 -95.5q0 -59 -39 -96.5t-100 -37.5q-62 0 -101 37.5t-39 96.5zM400 622q-1 -19 6.5 -27.5t25.5 -8.5h264q51 0 67 24t16 81q0 70 -38 97.5t-135 28.5q-118 1 -159.5 -39t-46.5 -156zM644 1313q0 58 39.5 95.5t101.5 37.5 q61 0 99.5 -37t38.5 -96t-38.5 -96.5t-99.5 -37.5q-62 0 -101.5 37.5t-39.5 96.5z" />
<glyph unicode="&#x452;" horiz-adv-x="1241" d="M39 1042v28q0 59 59 59h43q34 0 34 35v174q0 46 24.5 71t71.5 25h111q95 0 95 -96v-174q2 -35 36 -35h256q60 0 60 -59v-28q0 -59 -60 -59h-256q-33 0 -34 -35v-73q-2 -76 -8 -122q-2 -22 12 -26.5t37 10.5q176 109 350 109q284 0 286 -281v-517q0 -119 -48.5 -226.5 t-135.5 -179.5q-24 -20 -49 -23t-47.5 7.5t-51.5 33.5q-46 36 -52.5 67.5t20.5 78.5q61 100 61 240v427q0 62 -27 86.5t-96 24.5q-91 0 -225 -64q-28 -10 -28 -40v-384q0 -96 -95 -96h-111q-47 0 -71.5 25t-24.5 71v852q0 35 -34 35h-43q-59 0 -59 59z" />
<glyph unicode="&#x453;" horiz-adv-x="983" d="M123 96v682q0 124 64 184t195 60q331 0 481 -14q44 -4 66.5 -31.5t19.5 -72.5l-2 -27q-5 -93 -98 -93h-333q-50 0 -71.5 -21t-21.5 -70v-597q0 -46 -24.5 -71t-71.5 -25h-108q-47 0 -71.5 25t-24.5 71zM409 1178q-42 58 27 106l275 208q70 48 116 -23l43 -62 q23 -37 14.5 -67t-46.5 -47l-310 -155q-70 -31 -107 22z" />
<glyph unicode="&#x454;" horiz-adv-x="1093" d="M84 500q0 296 121.5 413.5t424.5 117.5q189 0 305 -26q86 -18 71 -117q-8 -52 -30.5 -75t-71.5 -23q-261 3 -274 3q-112 1 -162.5 -33t-64.5 -123q-4 -12 2.5 -21t19.5 -9h380q94 0 94 -95q0 -93 -94 -93h-383q-13 0 -20 -8t-6 -21q12 -104 62 -139.5t172 -35.5 q170 0 282 7q51 1 74.5 -23t31.5 -77q12 -99 -73 -118q-127 -29 -315 -29q-302 0 -424 117.5t-122 407.5z" />
<glyph unicode="&#x455;" horiz-adv-x="1079" d="M80 750q0 149 98 217t328 67q184 -2 376 -21q93 -12 83 -110q-6 -53 -30.5 -76t-72.5 -22q-196 4 -298 4q-122 0 -156.5 -11t-34.5 -56q0 -43 25 -59t103 -36l259 -62q132 -34 190.5 -101t58.5 -197q0 -172 -106 -239t-356 -67q-185 0 -362 19q-92 12 -83 112 q4 51 28 73.5t72 21.5q237 -3 260 -3q160 0 207.5 13.5t47.5 63.5q0 42 -29.5 59.5t-113.5 37.5l-253 61q-135 35 -188 109.5t-53 201.5z" />
<glyph unicode="&#x456;" horiz-adv-x="565" d="M117 1312q0 68 46.5 112.5t119.5 44.5q72 0 118.5 -44.5t46.5 -112.5q0 -69 -46.5 -113.5t-118.5 -44.5q-73 0 -119.5 44.5t-46.5 113.5zM131 99v812q0 99 100 99h101q100 0 100 -99v-812q0 -99 -100 -99h-101q-100 0 -100 99z" />
<glyph unicode="&#x457;" horiz-adv-x="569" d="M-41 1313q0 58 39 95.5t101 37.5q61 0 100 -37.5t39 -95.5q0 -59 -39 -96.5t-100 -37.5q-62 0 -101 37.5t-39 96.5zM132 96v819q0 95 96 95h112q96 0 96 -95v-819q0 -46 -25 -71t-71 -25h-112q-46 0 -71 25t-25 71zM330 1313q0 58 39 95.5t101 37.5q61 0 100 -37.5 t39 -95.5q0 -59 -39 -96.5t-100 -37.5q-62 0 -101 37.5t-39 96.5z" />
<glyph unicode="&#x458;" horiz-adv-x="569" d="M48 -270q-6 35 22 78q65 105 65 240v863q0 99 99 99h103q99 0 99 -99v-863q0 -119 -50 -226.5t-139 -178.5q-64 -53 -149 16q-44 36 -50 71zM117 1312q0 68 46.5 112.5t119.5 44.5q72 0 118 -44.5t46 -112.5q0 -69 -46 -113.5t-118 -44.5q-73 0 -119.5 44.5t-46.5 113.5z " />
<glyph unicode="&#x459;" horiz-adv-x="1691" d="M53 88q-8 52 5.5 81t59.5 50q61 28 88 94q28 66 44 165.5t38 297.5q24 234 266 234h350q62 0 94.5 -33t32.5 -94v-191q0 -35 35 -35h110q260 0 357 -71t97 -265q0 -190 -92.5 -261.5t-312.5 -71.5q-214 0 -353 7q-60 1 -91.5 34.5t-31.5 94.5v651q0 35 -34 35h-66 q-50 0 -72 -19.5t-27 -69.5q-40 -347 -88 -491q-40 -121 -120.5 -181t-189.5 -63q-45 -1 -68 24.5t-31 77.5zM1031 237q0 -40 41 -40h104q94 0 126 27t32 109q0 80 -31.5 107t-126.5 27h-110q-35 0 -35 -34v-196z" />
<glyph unicode="&#x45a;" horiz-adv-x="1689" d="M129 96v819q0 95 96 95h85q95 0 95 -95v-236q0 -35 35 -35h271q35 0 35 35v236q0 95 96 95h91q96 0 96 -95v-237q0 -34 35 -34h119q130 0 213 -15.5t136.5 -53.5t75 -98.5t21.5 -155.5q0 -190 -91 -261.5t-306 -71.5q-242 0 -363 6q-60 1 -91.5 35t-31.5 94v291 q0 35 -35 35h-271q-35 0 -35 -35v-318q0 -96 -95 -96h-85q-47 0 -71.5 25t-24.5 71zM1029 237q0 -40 41 -40h113q88 0 119 26t31 105q0 75 -30 101.5t-120 26.5h-119q-35 0 -35 -34v-185z" />
<glyph unicode="&#x45b;" horiz-adv-x="1241" d="M39 1045v22q0 62 63 62h43q30 1 30 35v174q0 46 24.5 71t71.5 25h111q95 0 95 -96v-174q2 -35 36 -35h253q63 0 63 -62v-22q0 -62 -63 -62h-253q-34 0 -34 -35v-74q-2 -75 -8 -121q-2 -22 12 -26.5t37 10.5q176 109 350 109q142 0 214 -71t72 -210v-469q0 -96 -95 -96 h-112q-47 0 -71.5 25t-24.5 71v377q0 63 -27 87t-96 24q-91 0 -225 -64q-28 -10 -28 -40v-384q0 -96 -95 -96h-111q-47 0 -71.5 25t-24.5 71v852q0 34 -29 35h-44q-63 0 -63 62z" />
<glyph unicode="&#x45c;" horiz-adv-x="1155" d="M129 96v819q0 95 96 95h109q96 0 96 -95v-164q0 -43 -6 -85q-6 -38 28 -38h62q39 0 68 11t50.5 29.5t41.5 58t35.5 82t38.5 115.5q23 86 108 86h108q32 0 49.5 -6t28.5 -24t6 -54.5t-25 -94.5q-54 -155 -105 -213.5t-160 -78.5q-12 -2 -16.5 -7.5t0 -11t16.5 -6.5 q55 -9 92 -24.5t67 -39.5t55.5 -72t48 -106t54.5 -156q16 -54 -4.5 -85t-72.5 -31h-119q-82 0 -110 86t-46 133.5t-38.5 91.5t-41.5 64t-47 31.5t-62 12.5h-76q-36 0 -31 -36q0 -4 1.5 -22.5t1.5 -27.5v-237q0 -46 -25 -71t-71 -25h-109q-47 0 -71.5 25t-24.5 71zM469 1178 q-42 58 27 106l275 208q70 48 115 -23l44 -62q23 -37 14.5 -67t-46.5 -47l-310 -155q-70 -31 -107 22z" />
<glyph unicode="&#x45d;" horiz-adv-x="1241" d="M129 96v819q0 95 96 95h77q96 0 96 -95v-434q0 -52 -1 -77t7.5 -28t21.5 16q15 22 48 72l339 484q41 62 116 62h87q95 0 95 -95v-819q0 -95 -95 -97h-79q-46 -1 -71 23.5t-25 71.5l1 426q0 56 1 83q1 25 -8.5 28t-22.5 -19q-19 -31 -49 -77l-334 -473q-42 -62 -117 -62 h-87q-47 0 -71.5 25t-24.5 71zM251.5 1340q-8.5 30 14.5 67l44 62q45 71 115 23l275 -208q67 -45 24 -111t-116 -35l-310 155q-38 17 -46.5 47z" />
<glyph unicode="&#x45e;" horiz-adv-x="1157" d="M55 901q-17 50 4.5 79.5t74.5 29.5h121q84 0 105 -82l169 -572q7 -29 27 -119q7 -32 19 -32t20 29q9 38 32 122l166 572q21 82 106 82h122q53 0 74 -29.5t4 -79.5l-320 -915q-86 -255 -276 -351q-120 -69 -321 -54q-92 8 -80 115q5 50 28.5 74t74.5 26q116 3 173 39 q62 40 105 133q9 14 3.5 23t-23.5 9h-17q-36 0 -62.5 19.5t-36.5 53.5zM241 1376q-9 38 14 60.5t65 22.5h43q36 0 52 -17t31 -58q22 -93 130 -93q104 0 126 93q15 41 31 58t52 17h41q42 0 66 -22.5t15 -60.5q-18 -103 -106.5 -168.5t-224.5 -65.5q-137 0 -227 65.5 t-108 168.5z" />
<glyph unicode="&#x45f;" horiz-adv-x="1230" d="M129 151v764q0 95 96 95h106q95 0 95 -95l4 -664q0 -35 35 -35h300q35 0 35 35l3 664q0 95 95 95h107q96 0 96 -95v-764q0 -73 -38.5 -112t-112.5 -39h-181q-34 0 -37 -34l-12 -214q-2 -49 -27.5 -67.5t-78.5 -18.5t-78.5 20t-28.5 66l-13 214q-3 34 -36 34h-178 q-74 0 -112.5 39t-38.5 112z" />
<glyph unicode="&#x490;" horiz-adv-x="1101" d="M142 96v1021q0 134 83.5 218t213.5 84q248 0 370 -8q33 -1 37 31l15 191q9 92 101 92h16q97 0 95 -96l-8 -368q-1 -46 -26.5 -70t-71.5 -24h-402q-60 0 -85.5 -25.5t-25.5 -86.5v-959q0 -46 -25 -71t-71 -25h-121q-95 0 -95 96z" />
<glyph unicode="&#x491;" horiz-adv-x="985" d="M124 96v682q0 124 64 184t195 60q177 0 316 -4q34 -3 37 32l15 175q8 81 90 81h29q87 0 84 -86l-8 -341q-3 -95 -98 -95h-330q-50 1 -72 -20.5t-22 -70.5v-597q0 -46 -25 -71t-71 -25h-108q-46 0 -71 25t-25 71z" />
<glyph unicode="&#x4b0;" horiz-adv-x="1261" d="M58.5 1381.5q19.5 31.5 75.5 31.5h120q80 0 111 -73l203 -445q32 -69 46 -149q6 -30 18 -30q11 0 17 30q14 76 46 150l202 444q31 73 111 73h118q56 0 75 -31.5t-6 -81.5l-328 -667q-9 -19 -2 -30.5t27 -11.5h109q36 0 55.5 -19.5t19.5 -55.5v-14q1 -37 -18.5 -56 t-55.5 -19h-180q-35 0 -35 -35v-296q0 -46 -24.5 -71t-71.5 -25h-121q-95 0 -95 96v296q0 35 -36 35h-175q-36 0 -55.5 19.5t-19.5 55.5v14q0 75 75 75h106q20 0 27 11.5t-3 30.5l-330 667q-25 50 -5.5 81.5z" />
<glyph unicode="&#x4b1;" horiz-adv-x="1261" d="M62 979q19 31 75 31h119q80 0 111 -73l202 -436q22 -50 46 -149q7 -29 17 -29t17 29q24 101 46 150l201 435q31 73 111 73h119q56 0 75 -31t-6 -81l-326 -660q-10 -19 -3 -30.5t28 -11.5h109q72 0 72 -71v-41q0 -71 -72 -71h-179q-35 0 -35 -35v-272q0 -46 -24.5 -71 t-71.5 -25h-121q-46 0 -71 25t-25 71v272q0 35 -35 35h-181q-71 0 -71 71v41q0 71 71 71h108q21 0 28.5 11.5t-2.5 30.5l-326 660q-25 50 -6 81z" />
<glyph unicode="&#x4b6;" horiz-adv-x="1421" d="M98 822v495q0 47 25 71.5t71 24.5h122q95 0 95 -96v-428q-3 -81 33 -114.5t128 -33.5q136 0 284 55q28 9 28 39v482q0 47 25 71.5t71 24.5h122q46 0 71 -24.5t25 -71.5v-1074q0 -35 34 -35h63q82 0 82 -95v-333q0 -89 -90 -89h-45q-87 0 -93 86l-16 190q-3 33 -35 33 h-118q-46 0 -71 25t-25 71v440q0 41 -40 25q-202 -82 -385 -82q-186 0 -273.5 83.5t-87.5 259.5z" />
<glyph unicode="&#x4b7;" horiz-adv-x="1228" d="M88 549v366q0 95 96 95h108q96 0 96 -95v-271q0 -54 22.5 -76t78.5 -22q108 0 209 35q27 9 27 40v294q0 95 96 95h111q95 0 95 -95l-3 -664q0 -35 35 -35h44q76 0 76 -96v-319q0 -90 -102 -90q-51 0 -76.5 20t-29.5 65l-13 171q-2 33 -36 33h-101q-47 0 -71.5 25 t-24.5 71v239q0 39 -39 28q-159 -46 -299 -46q-152 0 -225.5 57t-73.5 175z" />
<glyph unicode="&#x4ba;" horiz-adv-x="1345" d="M147 96v1221q0 96 95 96h121q47 0 71.5 -24.5t24.5 -71.5v-438q0 -19 15.5 -25t40.5 4q96 37 197 57t175 20q186 0 274 -84t88 -260v-495q0 -46 -24.5 -71t-71.5 -25h-121q-46 0 -71 25t-25 71v429q3 81 -33 114t-129 33q-147 0 -288 -53q-27 -11 -27 -41v-482 q0 -46 -24.5 -71t-71.5 -25h-121q-95 0 -95 96z" />
<glyph unicode="&#x4c0;" horiz-adv-x="598" d="M144 96v1221q0 96 95 96h119q46 0 71 -24.5t25 -71.5v-1221q0 -46 -25 -71t-71 -25h-119q-95 0 -95 96z" />
<glyph unicode="&#x2000;" horiz-adv-x="942" />
<glyph unicode="&#x2001;" horiz-adv-x="1884" />
<glyph unicode="&#x2002;" horiz-adv-x="942" />
<glyph unicode="&#x2003;" horiz-adv-x="1884" />
<glyph unicode="&#x2004;" horiz-adv-x="628" />
<glyph unicode="&#x2005;" horiz-adv-x="471" />
<glyph unicode="&#x2006;" horiz-adv-x="314" />
<glyph unicode="&#x2007;" horiz-adv-x="314" />
<glyph unicode="&#x2008;" horiz-adv-x="235" />
<glyph unicode="&#x2009;" horiz-adv-x="376" />
<glyph unicode="&#x200a;" horiz-adv-x="104" />
<glyph unicode="&#x2010;" horiz-adv-x="847" d="M119 510v24q0 87 87 87h435q88 0 88 -87v-24q0 -87 -88 -87h-435q-87 0 -87 87z" />
<glyph unicode="&#x2011;" horiz-adv-x="847" d="M119 510v24q0 87 87 87h435q88 0 88 -87v-24q0 -87 -88 -87h-435q-87 0 -87 87z" />
<glyph unicode="&#x2012;" horiz-adv-x="847" d="M119 510v24q0 87 87 87h435q88 0 88 -87v-24q0 -87 -88 -87h-435q-87 0 -87 87z" />
<glyph unicode="&#x2013;" horiz-adv-x="1148" d="M119 510v24q0 87 87 87h736q87 0 87 -87v-24q0 -87 -87 -87h-736q-87 0 -87 87z" />
<glyph unicode="&#x2014;" horiz-adv-x="1755" d="M119 510v24q0 87 87 87h1343q88 0 88 -87v-24q0 -87 -88 -87h-1343q-87 0 -87 87z" />
<glyph unicode="&#x2018;" horiz-adv-x="456" d="M70 1119q0 341 236 345q53 0 53 -55v-7q0 -22 -11 -33t-38 -22q-43 -23 -50 -63q-8 -30 21 -38q51 -13 81 -54t30 -93q0 -65 -44 -109.5t-117 -44.5t-117 41.5t-44 132.5z" />
<glyph unicode="&#x2019;" horiz-adv-x="450" d="M62 1322q0 65 44 109.5t117 44.5q72 0 116.5 -42t44.5 -133q0 -340 -236 -344q-52 0 -52 55v6q0 22 11 33t37 22q43 22 50 64q8 30 -21 38q-51 13 -81 54t-30 93z" />
<glyph unicode="&#x201a;" horiz-adv-x="479" d="M79 149q0 68 44 114t117 46t117 -43.5t44 -137.5q0 -354 -235 -358q-53 0 -53 57v7q0 23 11 34.5t37 22.5q43 22 50 66q8 32 -21 40q-51 14 -81 56t-30 96z" />
<glyph unicode="&#x201c;" horiz-adv-x="823" d="M70 1119q0 341 236 345q53 0 53 -55v-7q0 -22 -11 -33t-38 -22q-43 -23 -50 -63q-8 -30 21 -38q51 -13 81 -54t30 -93q0 -65 -44 -109.5t-117 -44.5t-117 41.5t-44 132.5zM438 1119q0 341 235 345q53 0 53 -55v-7q0 -22 -11 -33t-37 -22q-43 -23 -50 -63q-8 -30 21 -38 q51 -13 81 -54t30 -93q0 -65 -44 -109.5t-117 -44.5t-117 41.5t-44 132.5z" />
<glyph unicode="&#x201d;" horiz-adv-x="817" d="M62 1322q0 65 44 109.5t117 44.5q72 0 116.5 -42t44.5 -133q0 -340 -236 -344q-52 0 -52 55v6q0 22 11 33t37 22q43 22 50 64q8 30 -21 38q-51 13 -81 54t-30 93zM429 1322q0 65 44 109.5t118 44.5q72 0 116.5 -42t44.5 -133q0 -340 -236 -344q-53 0 -53 55v6q0 22 11 33 t37 22q44 23 51 64q8 30 -21 38q-52 13 -82 54t-30 93z" />
<glyph unicode="&#x201e;" horiz-adv-x="845" d="M78 132q0 65 44 109.5t117 44.5t117.5 -42t44.5 -133q0 -340 -236 -344q-53 0 -53 55v6q0 22 11 33t37 22q43 22 50 64q8 30 -21 38q-51 13 -81 54t-30 93zM446 132q0 65 44 109.5t117 44.5q72 0 116.5 -42t44.5 -133q0 -340 -236 -344q-52 0 -52 55v6q0 22 11 33t37 22 q43 22 50 64q8 30 -21 38q-51 13 -81 54t-30 93z" />
<glyph unicode="&#x2026;" horiz-adv-x="1828" d="M64 155q0 71 51.5 122.5t122.5 51.5t122 -51.5t51 -122.5t-51 -122t-122 -51t-122.5 51t-51.5 122zM728 155q0 71 51 122.5t122 51.5t122.5 -51.5t51.5 -122.5t-51.5 -122t-122.5 -51t-122 51t-51 122zM1391 155q0 71 51 122.5t122 51.5t122.5 -51.5t51.5 -122.5 t-51.5 -122t-122.5 -51t-122 51t-51 122z" />
<glyph unicode="&#x202f;" horiz-adv-x="376" />
<glyph unicode="&#x2039;" horiz-adv-x="636" d="M107 445q-52 70 1 136l229 299q57 72 137 21q79 -50 29 -131l-151 -232q-16 -24 0 -48l153 -241q48 -82 -31 -132t-135 22z" />
<glyph unicode="&#x203a;" horiz-adv-x="638" d="M133 249l154 241q16 24 0 48l-152 232q-50 81 29 131q81 51 137 -21l229 -299q53 -66 1 -136l-232 -306q-57 -74 -137 -20q-78 48 -29 130z" />
<glyph unicode="&#x205f;" horiz-adv-x="471" />
<glyph unicode="&#x20ac;" horiz-adv-x="1308" d="M80 576v12q0 34 20 54.5t55 20.5h46q22 1 22 24q0 9 0.5 27.5t0.5 27.5q0 26 -20 26h-47q-35 0 -55 20t-20 55v12q0 35 20 55t55 20h53q25 0 31 25q40 246 183.5 364.5t416.5 118.5q154 0 275 -27q45 -9 60.5 -41t9.5 -87q-8 -61 -33 -87t-78 -23q-140 12 -257 2 q-101 -5 -158 -57t-80 -156q-10 -32 24 -32h343q37 0 57 -21.5t16 -57.5l-1 -15q-4 -32 -24 -50t-51 -18h-364q-29 0 -29 -24q0 -9 -0.5 -27.5t-0.5 -27.5q0 -26 28 -26h312q36 0 56 -21.5t16 -56.5l-2 -15q-3 -32 -22.5 -50.5t-50.5 -18.5h-288q-16 0 -23 -9t-3 -23 q23 -115 81 -169.5t164 -60.5q120 -9 287 6q53 6 79 -20.5t33 -84.5q8 -57 -7.5 -89t-59.5 -42q-143 -34 -309 -34q-276 0 -420 122.5t-182 377.5q-4 26 -30 26h-54q-35 0 -55 20.5t-20 54.5z" />
<glyph unicode="&#x2122;" horiz-adv-x="2007" d="M114 1328v30q0 67 67 67h562q67 0 67 -67v-30q0 -67 -67 -67h-155q-21 0 -21 -21v-526q0 -67 -67 -67h-75q-67 0 -67 67v526q0 21 -21 21h-156q-67 0 -67 67zM890 716l22 577q3 120 124 120h107q110 0 134 -108l80 -297q4 -18 9.5 -52t7.5 -43q3 -18 11 -18t11 18 q16 85 19 97l75 294q21 109 133 109h116q59 1 91 -29.5t33 -89.5l19 -579q3 -68 -66 -68h-56q-65 0 -68 65l-25 535q-1 20 -10 20q-12 0 -15 -17l-111 -416q-7 -33 -32.5 -52.5t-65.5 -19.5h-96q-40 0 -65.5 19.5t-32.5 52.5l-111 416q-3 17 -14 17t-11 -20l-22 -535 q-2 -65 -67 -65h-57q-70 0 -67 69z" />
<glyph unicode="&#x25fc;" horiz-adv-x="1013" d="M0 0v1014h1014v-1014h-1014z" />
</font>
</defs>
</svg>
